<svg width="227" height="214" viewBox="0 0 227 214" fill="none" xmlns="http://www.w3.org/2000/svg">
<path fill-rule="evenodd" clip-rule="evenodd" d="M137.248 177.591C124.795 179.08 112.747 183.546 100.402 182.526C87.837 181.488 73.7046 180.022 65.4738 171.66C57.1236 163.177 64.3948 147.362 56.8382 138.268C47.4786 127.005 23.9984 128.487 18.5066 115.139C13.5642 103.126 22.492 88.0314 31.8828 77.6133C40.9834 67.517 58.4618 68.0297 68.9803 59.143C79.5821 50.1858 78.4288 25.5533 92.3338 26.54C110.2 27.8076 107.348 61.4143 125.14 63.1278C143.595 64.9051 153.778 34.2251 172.45 34.2557C186.453 34.2787 196.488 50.5365 197.261 63.246C198.109 77.173 175.778 87.3614 176.53 101.298C177.298 115.527 200.108 121.639 201.179 135.834C202.189 149.23 194.3 164.695 181.923 172.779C169.299 181.024 152.316 175.789 137.248 177.591Z" fill="#94FDD1" fill-opacity="0.37"/>
<path fill-rule="evenodd" clip-rule="evenodd" d="M149.971 81.8265C152.815 83.4677 155.814 80.6599 158.508 79.7239C160.436 79.0543 162.179 80.5914 163.843 79.057C168.027 75.1984 166.008 69.618 160.881 66.659C155.753 63.7 150.62 64.6097 147.353 68.5458C144.087 72.4818 144.844 78.8675 149.971 81.8265Z" fill="#191847"/>
<path fill-rule="evenodd" clip-rule="evenodd" d="M152.04 78.968C151.67 76.9605 151.846 74.8633 153.042 73.09C156.489 67.9805 163.225 73.4298 163.116 76.9496C163.007 80.4693 158.901 87.1879 156.761 86.5928C155.907 86.3554 154.594 84.9725 153.544 83.0714L150.426 90.8103L144.454 87.3639L152.04 78.968Z" fill="#B28B67"/>
<path fill-rule="evenodd" clip-rule="evenodd" d="M156.534 76.9952C156.384 76.7552 156.173 76.5465 155.908 76.394C155.062 75.9057 153.991 76.1783 153.515 77.0029C153.321 77.3394 153.256 77.7159 153.304 78.0768C152.596 78.4657 151.986 78.9513 151.531 79.5507C150.273 78.8246 148.429 71.4142 155.588 69.5751C162.747 67.736 165.667 77.9447 163.466 77.1713C162.2 76.7266 159.271 76.4895 156.534 76.9952Z" fill="#191847"/>
<path fill-rule="evenodd" clip-rule="evenodd" d="M142.975 115.799L153.786 151.143L159.023 181.2H163.129L157.595 115.799H142.975Z" fill="#997659"/>
<path fill-rule="evenodd" clip-rule="evenodd" d="M139.107 115.799C139.841 135.204 138.977 145.214 138.813 146.977C138.649 148.74 136.398 160.172 131.07 181.792L135.446 180.289C143.866 160.461 146.735 150.156 147.701 147.552C148.666 144.948 151.231 134.364 155.395 115.799H139.107Z" fill="#B28B67"/>
<path fill-rule="evenodd" clip-rule="evenodd" d="M131.103 180.268C130.782 181.126 130.621 181.768 130.621 182.194C130.621 182.712 130.707 183.468 130.88 184.462C131.481 184.462 136.882 184.462 147.084 184.462C147.505 183.069 147.262 182.318 146.354 182.207C145.447 182.096 144.694 181.996 144.093 181.906L136.562 178.549C136.417 178.484 136.247 178.549 136.183 178.694C136.182 178.697 136.181 178.699 136.18 178.702L135.695 179.876C134.856 180.268 134.173 180.464 133.648 180.464C133.221 180.464 132.632 180.291 131.881 179.947L131.881 179.947C131.592 179.815 131.251 179.941 131.119 180.23C131.113 180.242 131.108 180.255 131.103 180.268Z" fill="#333333"/>
<path fill-rule="evenodd" clip-rule="evenodd" d="M158.108 180.268C157.787 181.126 157.626 181.768 157.626 182.194C157.626 182.712 157.712 183.468 157.885 184.462C158.486 184.462 163.887 184.462 174.089 184.462C174.51 183.069 174.267 182.318 173.359 182.207C172.452 182.096 171.699 181.996 171.099 181.906L163.567 178.549C163.422 178.484 163.252 178.549 163.188 178.694C163.187 178.697 163.186 178.699 163.185 178.702L162.7 179.876C161.861 180.268 161.178 180.464 160.653 180.464C160.226 180.464 159.637 180.291 158.886 179.947L158.886 179.947C158.597 179.815 158.256 179.941 158.124 180.23C158.118 180.242 158.113 180.255 158.108 180.268Z" fill="#333333"/>
<path fill-rule="evenodd" clip-rule="evenodd" d="M141.538 115.799L146.135 133.806H160.175L158.081 115.799H141.538Z" fill="#69A1AC"/>
<path fill-rule="evenodd" clip-rule="evenodd" d="M138.952 115.799C137.44 120.332 137.153 126.335 138.091 133.806H152.418L156.358 115.799H138.952Z" fill="#89C5CC"/>
<ellipse cx="146.578" cy="184.891" rx="38.0546" ry="2.5036" fill="#333333" fill-opacity="0.22"/>
<path fill-rule="evenodd" clip-rule="evenodd" d="M168.269 111.238L176.407 119.178C178.775 120.188 180.716 121.303 182.228 122.524C182.568 122.934 182.938 123.72 181.338 123.368C179.738 123.016 178.039 122.718 177.738 123.239C177.437 123.759 178.323 124.557 177.768 125.238C177.397 125.692 176.151 124.248 174.029 120.905L165.566 115.915L168.269 111.238ZM132.146 112.358L138.15 112.382C134.443 124.348 132.441 130.698 132.146 131.43C131.481 133.077 132.888 135.587 133.49 136.935C131.53 137.812 131.739 134.565 129.267 135.715C127.011 136.764 125.295 138.666 122.689 137.058C122.368 136.86 122.017 136.115 122.866 135.534C124.979 134.084 128.026 131.548 128.437 130.713C128.998 129.574 130.235 123.456 132.146 112.358Z" fill="#B28B67"/>
<path fill-rule="evenodd" clip-rule="evenodd" d="M149.207 87.1666L151.692 86.7405C155.969 97.425 163.436 107.133 174.093 115.865L166.04 125.649C155.384 113.216 148.815 100.389 149.207 87.1666Z" fill="#191847"/>
<path fill-rule="evenodd" clip-rule="evenodd" d="M138.378 118.385H160.499C155.374 105.924 152.812 95.3384 152.812 86.6283L146.139 85.634C140.895 94.0684 139.414 104.453 138.378 118.385Z" fill="#DDE3E9"/>
<path fill-rule="evenodd" clip-rule="evenodd" d="M145.997 85.6388C145.998 85.6372 145.999 85.6356 146 85.634H146.436C146.957 85.652 147.751 85.6843 148.817 85.731L150.43 90.339C150.6 95.9571 151.596 107.279 153.418 124.305H138.917C138.955 125.481 139.018 126.668 139.105 127.866H128.323C129.935 109.67 135.825 95.5927 145.992 85.634L145.997 85.6388V85.6388Z" fill="#2F3676"/>
<path fill-rule="evenodd" clip-rule="evenodd" d="M139.875 109.259C140.287 116.59 141.321 121.643 142.974 124.419H138.92C138.743 119.145 139.061 114.092 139.875 109.259V109.259Z" fill="black" fill-opacity="0.1"/>
<path fill-rule="evenodd" clip-rule="evenodd" d="M142.145 115.513L149.295 112.189V115.513H142.145Z" fill="white" fill-opacity="0.2"/>
<g filter="url(#filter0_d)">
<path d="M190.003 72.3832C199.133 72.3832 206.535 64.9818 206.535 55.8516C206.535 46.7215 199.133 39.3201 190.003 39.3201C180.873 39.3201 173.472 46.7215 173.472 55.8516C173.472 64.9818 180.873 72.3832 190.003 72.3832Z" fill="#F2F2F2"/>
<path d="M190.003 43.6873C190.52 43.6873 190.939 43.2683 190.939 42.7515C190.939 42.2347 190.52 41.8158 190.003 41.8158C189.487 41.8158 189.068 42.2347 189.068 42.7515C189.068 43.2683 189.487 43.6873 190.003 43.6873Z" fill="#333333"/>
<path d="M176.903 56.7873C177.42 56.7873 177.839 56.3683 177.839 55.8515C177.839 55.3347 177.42 54.9158 176.903 54.9158C176.386 54.9158 175.967 55.3347 175.967 55.8515C175.967 56.3683 176.386 56.7873 176.903 56.7873Z" fill="#333333"/>
<path d="M203.104 56.7873C203.62 56.7873 204.039 56.3683 204.039 55.8515C204.039 55.3347 203.62 54.9158 203.104 54.9158C202.587 54.9158 202.168 55.3347 202.168 55.8515C202.168 56.3683 202.587 56.7873 203.104 56.7873Z" fill="#333333"/>
<path d="M190.003 69.8879C190.52 69.8879 190.939 69.4689 190.939 68.9521C190.939 68.4353 190.52 68.0164 190.003 68.0164C189.487 68.0164 189.068 68.4353 189.068 68.9521C189.068 69.4689 189.487 69.8879 190.003 69.8879Z" fill="#333333"/>
<path fill-rule="evenodd" clip-rule="evenodd" d="M190.003 44.6227L190.627 55.5397H189.379L190.003 44.6227Z" fill="#333333"/>
<path fill-rule="evenodd" clip-rule="evenodd" d="M195.524 61.372L189.789 56.5197L190.671 55.6375L195.524 61.372Z" fill="#333333"/>
<path d="M190.003 57.0991C190.692 57.0991 191.251 56.5405 191.251 55.8514C191.251 55.1624 190.692 54.6038 190.003 54.6038C189.314 54.6038 188.756 55.1624 188.756 55.8514C188.756 56.5405 189.314 57.0991 190.003 57.0991Z" fill="#333333"/>
</g>
<path fill-rule="evenodd" clip-rule="evenodd" d="M76.1094 114.18L87.5351 153.552L92.9092 183.113H98.3032L92.9188 114.18H76.1094Z" fill="#997659"/>
<path fill-rule="evenodd" clip-rule="evenodd" d="M70.9744 114.18C71.7716 134.633 71.4572 145.789 71.2788 147.648C71.1003 149.506 70.0874 161.952 63.1846 183.737H68.7948C77.9364 162.838 81.1276 150.392 82.1761 147.648C83.2246 144.903 86.3212 133.747 90.8421 114.18H70.9744Z" fill="#B28B67"/>
<path fill-rule="evenodd" clip-rule="evenodd" d="M75.8639 114.18C78.8359 127.728 83.9762 149.354 91.2848 179.058H99.1741C99.7569 148.57 97.278 128.503 92.9853 114.18H75.8639Z" fill="#69A1AC"/>
<path fill-rule="evenodd" clip-rule="evenodd" d="M70.9345 114.18C71.7153 134.633 69.6918 154.784 63.4237 179.377H71.8412C80.9996 158.789 87.5637 138.738 92.0498 114.18H70.9345Z" fill="#89C5CC"/>
<path fill-rule="evenodd" clip-rule="evenodd" d="M62.3849 187.792L62.6944 182.801C64.5068 183.332 66.7769 183.124 69.5046 182.178C72.4376 184.255 76.1298 185.674 80.5812 186.433L80.5812 186.433C80.9209 186.491 81.1492 186.814 81.0912 187.153C81.0875 187.175 81.0825 187.197 81.0765 187.219L80.6485 188.728H69.5046H63.004L62.3849 187.792Z" fill="#191847"/>
<path fill-rule="evenodd" clip-rule="evenodd" d="M91.7051 187.792L92.0146 182.801C93.827 183.332 96.0971 183.124 98.8248 182.178C101.758 184.255 105.45 185.674 109.901 186.433L109.901 186.433C110.241 186.491 110.469 186.814 110.411 187.153C110.408 187.175 110.403 187.197 110.397 187.219L109.969 188.728H98.8248H92.3242L91.7051 187.792Z" fill="#191847"/>
<path fill-rule="evenodd" clip-rule="evenodd" d="M73.9473 69.1926C72.0155 68.1063 70.388 66.5024 69.7398 64.2723C67.872 57.8467 77.0989 56.0129 79.9595 58.5495C82.8201 61.0861 85.5724 69.1795 83.5885 70.552C82.7973 71.0993 80.7317 71.2333 78.4155 70.789L82.7055 78.7674L75.6809 81.3549L73.9473 69.1926Z" fill="#B28B67"/>
<path fill-rule="evenodd" clip-rule="evenodd" d="M75.8714 62.7993C77.52 66.4459 78.9212 68.0567 80.0748 67.6317C81.8055 66.9942 82.8691 65.3547 83.6285 65.075C84.182 64.8711 84.3136 65.6094 84.1358 66.2581C83.9892 66.7934 82.6654 67.7448 82.9074 68.4017C83.1494 69.0587 84.1269 68.1214 84.2704 68.511C84.5078 69.1555 85.1589 70.2918 84.0403 70.7038C82.9083 71.1208 79.5108 71.9038 78.3357 70.4286C77.5773 69.4765 76.5176 67.3152 75.1566 63.9446C75.0849 63.9617 75.0134 63.9833 74.9426 64.0094C73.9727 64.3666 73.4761 65.4425 73.8333 66.4124C74.0147 66.9048 74.3812 67.2752 74.8251 67.4738C74.63 68.197 74.3953 68.964 74.1012 69.7744C71.7075 69.3204 68.9845 66.4131 69.6828 62.3995C69.6157 60.584 70.4962 59.2767 71.7646 58.3531C72.7352 57.4505 73.9064 56.9577 75.0178 56.8751C77.051 56.3181 79.0324 56.2708 79.6626 56.444C80.35 58.31 80.1923 58.9968 77.0861 60.0855C76.4749 60.7658 76.1458 61.6708 75.8714 62.7993Z" fill="#191847"/>
<path fill-rule="evenodd" clip-rule="evenodd" d="M68.9568 114.25H92.9743C87.534 97.6573 84.7548 86.2694 84.6369 80.0859C84.6309 79.7707 84.0487 79.2152 83.7911 79.2879C81.9074 79.8199 79.8917 79.621 77.744 78.6912C72.0502 87.8485 70.0812 99.1231 68.9568 114.25Z" fill="#F2F2F2"/>
<path fill-rule="evenodd" clip-rule="evenodd" d="M114.318 75.1452L126.14 71.5961C128.346 69.8791 130.426 68.6238 132.381 67.8301C132.95 67.723 133.891 67.7852 132.715 69.1196C131.539 70.4541 130.361 71.9106 130.697 72.4702C131.033 73.0297 132.257 72.6079 132.611 73.4943C132.847 74.0852 130.82 74.5084 126.528 74.7639L117.336 80.1738L114.318 75.1452Z" fill="#B28B67"/>
<path fill-rule="evenodd" clip-rule="evenodd" d="M59.7954 123.585L62.6332 135.599C62.2491 138.367 62.2021 140.797 62.4923 142.887C62.6839 143.433 63.2084 144.217 63.7759 142.531C64.3434 140.845 65.0161 139.097 65.6686 139.108C66.3211 139.119 66.5677 140.39 67.5124 140.253C68.1422 140.162 67.495 138.195 65.5707 134.351L65.6596 123.685L59.7954 123.585Z" fill="#B28B67"/>
<path d="M99.8101 62.4048L91.3416 64.1325L101.961 57.5556L102.23 61.9112L110.698 60.1836L100.079 66.7605L99.8101 62.4048Z" fill="#FF2F2F"/>
<path d="M99.5151 51.4972L95.1578 55.8734L98.8832 47.7555L100.76 50.2468L105.117 45.8705L101.392 53.9884L99.5151 51.4972Z" fill="#FF2F2F"/>
<path d="M97.2429 72.1838L92.2635 68.5309L100.848 70.9987L98.6656 73.2275L103.645 76.8804L95.0608 74.4126L97.2429 72.1838Z" fill="#FF2F2F"/>
<path d="M57.3609 60.053L65.7699 63.3341L57.417 55.5632L54.9583 59.1156L46.5492 55.8346L54.9021 63.6055L57.3609 60.053Z" fill="#FF2F2F"/>
<path d="M62.5128 48.6418L65.0716 54.2624L64.4093 45.355L61.7818 47.0359L59.223 41.4153L59.8853 50.3226L62.5128 48.6418Z" fill="#FF2F2F"/>
<ellipse cx="76.9926" cy="188.482" rx="41.3165" ry="3.26183" fill="#333333" fill-opacity="0.22"/>
<path d="M57.4324 68.8237L63.3728 67.1355L54.4667 66.4565L55.7352 69.3061L49.7948 70.9944L58.7009 71.6733L57.4324 68.8237Z" fill="#FF2F2F"/>
<path fill-rule="evenodd" clip-rule="evenodd" d="M75.1752 91.7146L76.5877 83.6804C91.9513 86.7569 111.088 71.9368 116.718 73.3086C118.782 73.8117 117.756 74.1715 118.666 73.7746L120.841 78.1237C119.95 78.3372 119.959 78.9616 117.956 80.9199C115.954 82.8781 91.0647 99.8525 75.1752 91.7146Z" fill="#DB2721"/>
<path fill-rule="evenodd" clip-rule="evenodd" d="M85.2711 82.5783C87.6239 102.274 99.8317 105.724 98.3328 113.956C97.0951 120.754 77.7478 130.504 73.3704 124.599C71.5985 122.208 70.5298 119.171 69.9961 115.785C69.4523 118.516 69.047 120.859 68.7801 122.813C68.3198 126.185 64.8972 127.175 65.0669 128.426L60.2957 127.799C60.3773 126.056 58.0958 125.522 58.1623 121.644C58.4603 104.268 63.7893 90.9789 74.1492 81.7778L74.0418 80.1C73.9979 79.414 74.5264 78.8207 75.2222 78.7748L83.7265 78.213C84.4223 78.1671 85.022 78.6859 85.0659 79.3718L85.2711 82.5783Z" fill="#FF4133"/>
<defs>
<filter id="filter0_d" x="171.472" y="38.3201" width="37.0631" height="37.0631" filterUnits="userSpaceOnUse" color-interpolation-filters="sRGB">
<feFlood flood-opacity="0" result="BackgroundImageFix"/>
<feColorMatrix in="SourceAlpha" type="matrix" values="0 0 0 0 0 0 0 0 0 0 0 0 0 0 0 0 0 0 127 0"/>
<feOffset dy="1"/>
<feGaussianBlur stdDeviation="1"/>
<feColorMatrix type="matrix" values="0 0 0 0 0 0 0 0 0 0 0 0 0 0 0 0 0 0 0.5 0"/>
<feBlend mode="normal" in2="BackgroundImageFix" result="effect1_dropShadow"/>
<feBlend mode="normal" in="SourceGraphic" in2="effect1_dropShadow" result="shape"/>
</filter>
</defs>
</svg>
