<svg width="86" height="83" viewBox="0 0 86 83" fill="none" xmlns="http://www.w3.org/2000/svg">
<path fill-rule="evenodd" clip-rule="evenodd" d="M38.8429 7.7502C48.8257 6.60305 59.552 6.28654 68.1753 10.404C77.1338 14.6816 85.5354 21.9194 85.7721 30.1581C86.004 38.231 72.6528 42.2953 69.3109 49.9307C66.074 57.3266 74.6858 67.671 67.1278 72.7566C59.7448 77.7244 48.5604 70.4529 38.8429 70.4318C29.1694 70.4108 18.8255 76.726 10.6714 72.6339C2.55595 68.5613 3.16869 59.1429 1.49395 51.6886C0.055058 45.284 -0.723127 38.8765 1.68955 32.6555C4.13743 26.3438 8.75548 20.7793 15.1419 16.4982C21.95 11.9345 29.9905 8.76746 38.8429 7.7502Z" fill="#94FDD1" fill-opacity="0.37"/>
<g filter="url(#filter0_d)">
<path d="M59.9229 22.506C63.1913 22.506 65.8408 21.4727 65.8408 20.1982C65.8408 18.9236 63.1913 17.8904 59.9229 17.8904C56.6545 17.8904 54.005 18.9236 54.005 20.1982C54.005 21.4727 56.6545 22.506 59.9229 22.506Z" fill="#F2F2F2"/>
<path fill-rule="evenodd" clip-rule="evenodd" d="M66.8157 21.7879C66.8157 18.9555 63.7297 16.6594 59.923 16.6594C56.1163 16.6594 53.0304 18.9555 53.0304 21.7879" fill="#DDE3E9"/>
<path d="M60.2711 1H59.5748V17.411H60.2711V1Z" fill="#DDE3E9"/>
</g>
<path fill-rule="evenodd" clip-rule="evenodd" d="M26.6126 22.7018C25.9822 21.8262 25.5899 20.7831 25.7541 19.662C26.2274 16.4317 30.6528 17.5001 31.3994 19.2083C32.1459 20.9165 31.7256 25.0667 30.5771 25.2707C30.119 25.3521 29.184 24.9903 28.2553 24.3209L28.5341 28.7336L24.9249 28.4486L26.6126 22.7018Z" fill="#B28B67"/>
<path fill-rule="evenodd" clip-rule="evenodd" d="M28.7462 20.2593C28.7364 22.2125 29.0278 23.2125 29.6206 23.2593C30.5098 23.3296 31.3076 22.8194 31.6977 22.8503C31.9821 22.8727 31.8913 23.2269 31.6825 23.4784C31.5102 23.6858 30.7366 23.8378 30.7107 24.1784C30.6847 24.5191 31.3032 24.3028 31.2878 24.5048C31.2624 24.839 31.3197 25.4757 30.745 25.4303C30.1634 25.3843 28.5121 25.0387 28.2927 24.1449C28.1511 23.5681 28.1206 22.3936 28.2012 20.6214C28.1663 20.6143 28.1305 20.6093 28.0941 20.6064C27.5958 20.5671 27.1607 20.9429 27.1224 21.4458C27.103 21.7012 27.1895 21.9402 27.3446 22.1188C27.1132 22.3997 26.8555 22.6919 26.563 22.9913C25.6022 22.3019 24.9908 20.4574 26.1062 18.82C26.4424 18.0012 27.0928 17.6011 27.8364 17.4502C28.4449 17.2479 29.059 17.2681 29.5642 17.4582C30.5702 17.6258 31.4507 18.0089 31.6929 18.2142C31.6192 19.1818 31.4115 19.4542 29.8268 19.3036C29.4211 19.4806 29.0941 19.8148 28.7462 20.2593Z" fill="#191847"/>
<path fill-rule="evenodd" clip-rule="evenodd" d="M21.5656 40.426L29.9987 58.9823L35.8369 74.7435L37.7946 74.6321L28.2933 40.0431L21.5656 40.426Z" fill="#997659"/>
<path fill-rule="evenodd" clip-rule="evenodd" d="M20.5889 43.7695C20.5101 50.4486 19.3604 59.4408 19.1767 59.8571C19.0542 60.1347 14.827 63.6643 6.49487 70.446L7.84532 71.9119C17.6764 66.0974 22.8194 62.8024 23.2744 62.0269C23.9568 60.8637 26.1785 50.1592 27.9621 43.7695H20.5889Z" fill="#B28B67"/>
<path fill-rule="evenodd" clip-rule="evenodd" d="M6.30534 69.9537C5.8518 70.1169 5.53937 70.2717 5.36805 70.4181C5.15969 70.5961 4.88477 70.8913 4.54328 71.3035C4.7461 71.5496 6.5689 73.7617 10.0117 77.9396C10.7136 77.6337 10.9339 77.2759 10.6723 76.8662C10.4108 76.4565 10.1968 76.1134 10.0303 75.8369L8.83896 71.5987C8.81604 71.5172 8.73253 71.47 8.65245 71.4933C8.65108 71.4937 8.64971 71.4941 8.64835 71.4946L8.01268 71.6999C7.57165 71.4906 7.26253 71.2784 7.08533 71.0634C6.94136 70.8887 6.81183 70.5882 6.69674 70.1619L6.69674 70.1619C6.65257 69.9983 6.48654 69.9022 6.32589 69.9471C6.31897 69.9491 6.31211 69.9513 6.30534 69.9537Z" fill="#333333"/>
<path fill-rule="evenodd" clip-rule="evenodd" d="M34.9955 74.0637C34.8521 74.5312 34.7867 74.8787 34.7992 75.1061C34.8143 75.3826 34.8817 75.7836 35.0013 76.309C35.3164 76.291 38.1477 76.1299 43.4954 75.8256C43.6753 75.0699 43.5259 74.676 43.0471 74.6438C42.5682 74.6117 42.1703 74.5807 41.8531 74.5508L37.8068 72.9833C37.7289 72.9531 37.6418 72.993 37.6122 73.0722C37.6116 73.0736 37.6112 73.075 37.6107 73.0763L37.3913 73.7176C36.9626 73.9518 36.6105 74.0768 36.3353 74.0924C36.1117 74.1052 35.7978 74.0308 35.3936 73.8693L35.3936 73.8693C35.2386 73.8073 35.0635 73.8851 35.0026 74.043C35 74.0498 34.9976 74.0567 34.9955 74.0637Z" fill="#333333"/>
<path fill-rule="evenodd" clip-rule="evenodd" d="M28.3667 73.5112L37.6181 71.9569L28.9448 40.0063L20.6083 40.4807L28.3667 73.5112Z" fill="#69A1AC"/>
<path fill-rule="evenodd" clip-rule="evenodd" d="M8.4231 68.0811L14.5379 75.4228C20.9785 68.2875 24.7334 63.6318 25.8025 61.4555C26.8717 59.2793 27.8328 53.384 28.6859 43.7695H19.2859C18.8199 52.2279 18.5057 56.6539 18.3435 57.0475C18.1813 57.4411 14.8745 61.1189 8.4231 68.0811Z" fill="#89C5CC"/>
<path fill-rule="evenodd" clip-rule="evenodd" d="M17.8214 39.6741L20.8757 40.467C17.4672 46.1599 15.6412 49.176 15.3977 49.5154C14.8498 50.2791 15.2473 51.7567 15.3823 52.5307C14.2731 52.7283 14.7921 51.08 13.3872 51.352C12.105 51.6002 10.9894 52.3583 9.86638 51.1895C9.72832 51.0458 9.6441 50.616 10.1501 50.4261C11.4108 49.9531 13.2844 49.0402 13.6001 48.6629C14.0306 48.1483 15.4377 45.1521 17.8214 39.6741Z" fill="#B28B67"/>
<path d="M43.2027 21.1726L39.2972 25.7555L41.8153 27.0574L44.1727 22.3901C45.8549 21.1569 46.5721 20.4482 46.3245 20.2641C45.9531 19.9879 45.5628 20.485 45.2826 20.3401C45.0024 20.1952 45.1086 19.2794 45.2457 18.4146C45.3828 17.5499 44.9835 17.7712 44.7794 17.9651C44.1865 18.8091 43.661 19.8783 43.2027 21.1726Z" fill="#B28B67"/>
<path fill-rule="evenodd" clip-rule="evenodd" d="M24.7693 39.6976L24.469 38.3854C28.3319 33.2131 36.1903 30.706 40.0613 24.4188L41.9045 25.7627C41.2545 36.2998 31.6768 39.4861 24.7693 39.6976Z" fill="#E87613"/>
<path fill-rule="evenodd" clip-rule="evenodd" d="M20.229 43.5947C25.3016 44.89 29.0329 45.8429 31.4229 46.4532C31.9344 46.5838 32.0223 45.8108 32.0414 45.4143C32.2614 40.8379 30.0872 35.289 31.6151 29.0849L28.5126 27.7473C24.7701 31.4176 22.5269 36.5402 20.229 43.5947Z" fill="#DDE3E9"/>
<path fill-rule="evenodd" clip-rule="evenodd" d="M23.4273 30.9957C22.992 30.7394 22.6991 30.326 22.5486 29.7556C21.8998 27.2965 22.6186 26.2173 23.9759 26.1489C25.3333 26.0805 26.26 27.172 28.2694 27.6852C28.3787 27.7131 28.4771 27.7456 28.5646 27.7827L29.561 28.0992C30.0084 38.799 29.1718 45.6478 27.0513 48.6457L18.2408 46.3958C17.4151 47.4959 16.66 48.4061 15.9756 49.1263L13.5749 48.5133C15.1719 41.0533 18.4561 35.2141 23.4273 30.9957Z" fill="#FF9B21"/>
<path fill-rule="evenodd" clip-rule="evenodd" d="M21.419 41.7712C21.1176 44.1911 21.1481 46.011 21.5105 47.231L18.2408 46.396C19.2041 45.1128 20.2635 43.5712 21.419 41.7712Z" fill="black" fill-opacity="0.1"/>
<path fill-rule="evenodd" clip-rule="evenodd" d="M57.066 34.9823C57.0895 33.9751 57.3808 32.9797 58.1241 32.2437C60.2659 30.1232 62.9218 33.4358 62.5211 35.1252C62.1205 36.8147 59.5066 39.646 58.5499 39.1424C58.1684 38.9416 57.6829 38.141 57.3728 37.1165L55.1264 40.5406L52.6347 38.2728L57.066 34.9823Z" fill="#B28B67"/>
<path fill-rule="evenodd" clip-rule="evenodd" d="M62.6286 32.9857C62.3809 32.5701 61.9181 32.0844 61.6889 31.9195C62.0605 31.7386 62.3896 31.4598 62.6261 31.112C62.8559 30.774 62.9497 30.3935 63.0645 30.0098C63.1174 29.8329 63.1621 29.6498 63.1499 29.4667C63.1376 29.2801 63.0701 29.1029 62.967 28.9539C62.8616 28.8014 62.7202 28.6774 62.5619 28.5846C62.4919 28.5436 62.4149 28.5229 62.3437 28.4856C62.2708 28.4473 62.2752 28.3835 62.2655 28.3064C62.2422 28.1208 62.13 27.9376 62.0131 27.8022C61.8821 27.6504 61.7097 27.5341 61.5264 27.4558C61.3479 27.3795 61.1486 27.338 60.9505 27.3615C60.8623 27.3719 60.7721 27.3931 60.6905 27.4329C60.6571 27.4492 60.6418 27.463 60.6079 27.4493C60.5766 27.4367 60.5488 27.4119 60.5171 27.3981C60.2107 27.2652 59.8471 27.2672 59.529 27.4051C59.3434 27.4856 59.0989 27.7022 58.867 27.9833C58.6352 28.2644 58.2512 29.1991 58.2495 29.666C58.2481 30.0827 58.4112 30.5071 58.6395 30.8357C58.254 30.8841 57.8836 31.0459 57.5421 31.2425C57.1712 31.4561 56.8287 31.7171 56.5206 32.0203C56.228 32.3083 55.9398 32.6324 55.746 32.9986C55.5648 33.3411 55.5037 33.7017 55.6118 34.0642C55.6613 34.2302 55.7338 34.387 55.8107 34.5401C55.8865 34.691 55.9638 34.8409 56.0627 34.9768C56.2498 35.234 56.5215 35.4664 56.8616 35.4413C56.9842 35.4322 57.1282 35.4117 57.2466 35.3721C57.2892 35.3579 57.3161 35.3478 57.3211 35.3005C57.3271 35.2439 57.3109 35.1816 57.3033 35.1262C57.2602 34.8102 57.3301 34.5044 57.5165 34.235C57.7056 33.9617 58.0515 33.7016 58.3828 33.8087C58.7918 33.9409 58.9788 34.3866 59.1129 34.7654C59.5709 34.4695 60.1104 34.3188 60.6248 34.46C61.1939 34.6163 61.6651 35.0029 62.22 35.1976C62.3646 35.2483 62.5165 35.2947 62.6743 35.2736C62.7402 35.2648 62.8218 35.2496 62.8791 35.2108C62.9545 35.1597 62.9613 35.0656 62.9743 34.9842C63.043 34.5522 62.8763 33.4013 62.6286 32.9857Z" fill="#191847"/>
<path fill-rule="evenodd" clip-rule="evenodd" d="M64.2512 63.1299C65.9002 62.7789 67.1653 65.1562 66.4161 66.0074C64.4491 68.2423 53.1199 77.0398 52.4265 77.6152C51.7331 78.1906 50.419 77.3892 51.0892 76.4918C52.1556 75.0638 56.0198 70.2658 58.1005 68.2912C58.7083 67.7144 59.3007 67.1614 59.8599 66.6472C57.1138 67.6159 53.1194 68.8823 47.8767 70.4463L47.1693 68.8018C50.8731 66.5064 53.5949 64.9833 55.3348 64.2326C58.3139 62.9471 60.9487 61.9224 61.943 61.6217C63.2564 61.2246 64.0231 62.1338 64.2512 63.1299Z" fill="#B28B67"/>
<path fill-rule="evenodd" clip-rule="evenodd" d="M48.7903 67.1303L61.5831 60.9661C63.9797 60.2506 65.0349 64.6973 63.8799 65.3261C61.2575 66.7538 51.3609 70.0954 50.5796 70.5208L48.7903 67.1303Z" fill="#1F28CF"/>
<path fill-rule="evenodd" clip-rule="evenodd" d="M65.8415 66.8748C63.3787 69.6807 56.3816 75.1769 55.8384 75.794L53.0008 73.0306C58.5456 67.7617 61.2951 65.0714 61.2491 64.9596C61.1456 64.7082 52.9713 59.2525 50.7369 57.3688C47.5149 54.6524 47.9346 51.532 51.073 47.7422L57.1099 53.2366C61.7212 58.5623 64.7308 62.0865 66.1388 63.8094C67.043 64.9157 66.52 66.1019 65.8415 66.8748Z" fill="#2B44FF"/>
<path fill-rule="evenodd" clip-rule="evenodd" d="M47.2171 68.2031C46.7856 68.31 46.4845 68.4226 46.3137 68.5408C46.1061 68.6845 45.8266 68.9295 45.4752 69.2758C45.639 69.5211 47.1108 71.7256 49.8907 75.8894C50.5634 75.675 50.7984 75.3672 50.5957 74.9661C50.393 74.5651 50.2278 74.2297 50.1001 73.9599L49.3936 69.9543C49.38 69.8772 49.3077 69.826 49.232 69.8398C49.2307 69.8401 49.2294 69.8403 49.2281 69.8406L48.6255 69.9688C48.2395 69.7348 47.975 69.5106 47.832 69.2963C47.7157 69.1222 47.6242 68.8339 47.5575 68.4315L47.5575 68.4315C47.5319 68.277 47.3882 68.173 47.2365 68.199C47.23 68.2002 47.2235 68.2015 47.2171 68.2031Z" fill="#333333"/>
<path fill-rule="evenodd" clip-rule="evenodd" d="M51.2645 75.7539C50.8713 75.9639 50.6058 76.1473 50.4682 76.304C50.3009 76.4947 50.0879 76.8012 49.8293 77.2237C50.0464 77.4214 51.9983 79.1979 55.6849 82.5532C56.2867 82.1794 56.4416 81.8229 56.1496 81.4837C55.8576 81.1445 55.6176 80.8597 55.4296 80.6294L53.7925 76.9169C53.761 76.8454 53.6786 76.8135 53.6084 76.8456C53.6072 76.8461 53.606 76.8467 53.6048 76.8473L53.0506 77.1202C52.6205 76.9882 52.3106 76.8358 52.1209 76.6631C51.9667 76.5228 51.8094 76.2656 51.6491 75.8916L51.6491 75.8916C51.5876 75.748 51.4234 75.6825 51.2825 75.7451C51.2764 75.7478 51.2704 75.7507 51.2645 75.7539Z" fill="#333333"/>
<path fill-rule="evenodd" clip-rule="evenodd" d="M63.8137 38.8555L69.1338 37.3926C70.1394 36.6404 71.0833 36.0963 71.9657 35.7604C72.2208 35.719 72.6401 35.7591 72.0985 36.3506C71.5569 36.9421 71.0134 37.589 71.1563 37.8475C71.2993 38.1061 71.8506 37.9299 71.9976 38.3371C72.0956 38.6086 71.1856 38.7753 69.2676 38.837L65.0981 41.1788L63.8137 38.8555ZM63.0881 48.3141L67.4371 51.7601C68.6322 52.1252 69.627 52.5654 70.4215 53.0809C70.6075 53.2634 70.8283 53.6285 70.0385 53.5441C69.2487 53.4596 68.4142 53.407 68.2975 53.6788C68.1808 53.9506 68.6507 54.2929 68.4198 54.6576C68.2658 54.9007 67.5875 54.2609 66.3848 52.7382L62.0389 50.7568L63.0881 48.3141Z" fill="#B28B67"/>
<path fill-rule="evenodd" clip-rule="evenodd" d="M56.4366 39.1773C58.7287 43.8367 62.1286 47.4552 67.0971 51.2574L65.1175 53.4065C59.5168 51.1041 56.5653 49.7271 55.2173 45.3481C54.879 44.2491 54.7167 40.7716 54.546 38.9395L56.4366 39.1773Z" fill="#2026A2"/>
<path fill-rule="evenodd" clip-rule="evenodd" d="M49.2585 54.2805L59.9762 54.5849C57.755 46.9763 56.6565 41.7664 56.6809 38.9551C56.6821 38.8117 56.4292 38.5519 56.3133 38.5817C55.4661 38.7996 54.5691 38.6837 53.6223 38.2339C50.9675 42.3229 49.9485 47.4212 49.2585 54.2805Z" fill="#F2F2F2"/>
<path fill-rule="evenodd" clip-rule="evenodd" d="M54.5366 38.2666C57.6081 38.3795 62.5769 39.0923 68.3768 37.3764L68.8652 40.2802C64.4427 43.0021 59.983 45.0812 56.1368 44.6587C57.6104 52.0179 57.3693 58.0011 53.6737 57.8961C51.9089 57.846 50.004 57.7919 47.959 57.7338C47.2215 51.4969 49.8428 42.9527 52.1733 38.6717C52.2623 38.5083 52.4506 38.2007 52.8741 38.2127C53.2431 38.2232 53.7966 38.2389 54.5346 38.2598C54.5353 38.2621 54.536 38.2644 54.5366 38.2666Z" fill="#1F28CF"/>
<path d="M37.1325 20.1024L33.9074 20.7724L37.9516 18.2218L38.054 19.9109L41.2792 19.241L37.2349 21.7915L37.1325 20.1024Z" fill="#FF2F2F"/>
<path d="M37.0204 15.8725L35.3609 17.5696L36.7797 14.4215L37.4945 15.3876L39.1539 13.6904L37.7352 16.8386L37.0204 15.8725Z" fill="#FF2F2F"/>
<path d="M36.155 23.8947L34.2586 22.4781L37.5278 23.4351L36.6968 24.2995L38.5931 25.7161L35.3239 24.759L36.155 23.8947Z" fill="#FF2F2F"/>
<path d="M20.9661 19.1904L24.1687 20.4628L20.9875 17.4492L20.0511 18.8268L16.8486 17.5544L20.0298 20.568L20.9661 19.1904Z" fill="#FF2F2F"/>
<path d="M22.9283 14.7651L23.9028 16.9448L23.6506 13.4905L22.6499 14.1423L21.6754 11.9626L21.9276 15.4169L22.9283 14.7651Z" fill="#FF2F2F"/>
<path d="M20.9934 22.5916L23.2558 21.9369L19.864 21.6736L20.347 22.7786L18.0847 23.4333L21.4765 23.6967L20.9934 22.5916Z" fill="#FF2F2F"/>
<ellipse cx="60.2235" cy="81.2277" rx="13.4372" ry="1.77239" fill="#333333" fill-opacity="0.22"/>
<ellipse cx="23.1147" cy="76.2648" rx="23.1147" ry="1.77239" fill="#333333" fill-opacity="0.22"/>
<defs>
<filter id="filter0_d" x="51.0304" y="0" width="17.7853" height="25.506" filterUnits="userSpaceOnUse" color-interpolation-filters="sRGB">
<feFlood flood-opacity="0" result="BackgroundImageFix"/>
<feColorMatrix in="SourceAlpha" type="matrix" values="0 0 0 0 0 0 0 0 0 0 0 0 0 0 0 0 0 0 127 0"/>
<feOffset dy="1"/>
<feGaussianBlur stdDeviation="1"/>
<feColorMatrix type="matrix" values="0 0 0 0 0 0 0 0 0 0 0 0 0 0 0 0 0 0 0.5 0"/>
<feBlend mode="normal" in2="BackgroundImageFix" result="effect1_dropShadow"/>
<feBlend mode="normal" in="SourceGraphic" in2="effect1_dropShadow" result="shape"/>
</filter>
</defs>
</svg>
