<svg width="108" height="37" viewBox="0 0 108 37" fill="none" xmlns="http://www.w3.org/2000/svg">
<path d="M14.8356 19.176C15.2356 19.176 15.5796 19.32 15.8676 19.608C16.1716 19.88 16.3236 20.224 16.3236 20.64V34.536C16.3236 34.952 16.1876 35.304 15.9156 35.592C15.6436 35.864 15.2836 36 14.8356 36C14.3876 36 14.0196 35.864 13.7316 35.592C13.4596 35.32 13.3236 34.968 13.3236 34.536V24.864L9.36358 30.912C9.20358 31.104 9.01958 31.264 8.81158 31.392C8.60358 31.504 8.38758 31.552 8.16358 31.536C7.95558 31.552 7.74758 31.504 7.53958 31.392C7.33158 31.264 7.14758 31.104 6.98758 30.912L3.02758 24.648V34.536C3.02758 34.968 2.89958 35.32 2.64358 35.592C2.38758 35.864 2.05158 36 1.63558 36C1.23558 36 0.907578 35.864 0.651578 35.592C0.395578 35.304 0.267578 34.952 0.267578 34.536V20.64C0.267578 20.24 0.411578 19.896 0.699578 19.608C1.00358 19.32 1.36358 19.176 1.77958 19.176C2.01958 19.176 2.25958 19.24 2.49958 19.368C2.73958 19.48 2.92358 19.632 3.05158 19.824L8.28358 27.864L13.6596 19.824C13.7876 19.632 13.9556 19.48 14.1636 19.368C14.3876 19.24 14.6116 19.176 14.8356 19.176Z" fill="white"/>
<path d="M32.7168 19.176C33.1328 19.176 33.4688 19.312 33.7248 19.584C33.9808 19.856 34.1088 20.208 34.1088 20.64V29.328C34.1088 30.656 33.8288 31.832 33.2688 32.856C32.7088 33.88 31.9248 34.68 30.9168 35.256C29.9088 35.832 28.7568 36.12 27.4608 36.12C26.1648 36.12 25.0048 35.832 23.9808 35.256C22.9728 34.68 22.1888 33.88 21.6288 32.856C21.0688 31.832 20.7888 30.656 20.7888 29.328V20.64C20.7888 20.224 20.9328 19.88 21.2208 19.608C21.5088 19.32 21.8768 19.176 22.3248 19.176C22.7088 19.176 23.0448 19.32 23.3328 19.608C23.6208 19.88 23.7648 20.224 23.7648 20.64V29.328C23.7648 30.096 23.9328 30.784 24.2688 31.392C24.6048 31.984 25.0528 32.44 25.6128 32.76C26.1888 33.08 26.8048 33.24 27.4608 33.24C28.1488 33.24 28.7888 33.08 29.3808 32.76C29.9888 32.44 30.4688 31.984 30.8208 31.392C31.1888 30.784 31.3728 30.096 31.3728 29.328V20.64C31.3728 20.208 31.4928 19.856 31.7328 19.584C31.9728 19.312 32.3008 19.176 32.7168 19.176Z" fill="white"/>
<path d="M47.8318 33.192C48.2478 33.192 48.5918 33.328 48.8638 33.6C49.1518 33.856 49.2958 34.192 49.2958 34.608C49.2958 35.008 49.1518 35.344 48.8638 35.616C48.5918 35.872 48.2478 36 47.8318 36H40.0318C39.6158 36 39.2638 35.864 38.9758 35.592C38.7038 35.304 38.5678 34.952 38.5678 34.536V20.664C38.5678 20.248 38.7118 19.904 38.9998 19.632C39.2878 19.344 39.6558 19.2 40.1038 19.2C40.5038 19.2 40.8478 19.344 41.1358 19.632C41.4238 19.904 41.5678 20.248 41.5678 20.664V33.192H47.8318Z" fill="white"/>
<path d="M65.0695 19.2C65.5175 19.2 65.8775 19.336 66.1495 19.608C66.4215 19.88 66.5575 20.232 66.5575 20.664V34.536C66.5575 34.952 66.4135 35.304 66.1255 35.592C65.8375 35.864 65.4695 36 65.0215 36C64.6215 36 64.2775 35.864 63.9895 35.592C63.7015 35.304 63.5575 34.952 63.5575 34.536V28.944H55.9015V34.536C55.9015 34.952 55.7495 35.304 55.4455 35.592C55.1415 35.864 54.7895 36 54.3895 36C53.9575 36 53.5975 35.864 53.3095 35.592C53.0375 35.304 52.9015 34.952 52.9015 34.536V20.664C52.9015 20.248 53.0455 19.904 53.3335 19.632C53.6215 19.344 53.9895 19.2 54.4375 19.2C54.8375 19.2 55.1815 19.344 55.4695 19.632C55.7575 19.904 55.9015 20.248 55.9015 20.664V26.184H63.5575V20.664C63.5575 20.248 63.7095 19.904 64.0135 19.632C64.3175 19.344 64.6695 19.2 65.0695 19.2Z" fill="white"/>
<path d="M80.5127 33.24C80.9287 33.24 81.2727 33.384 81.5447 33.672C81.8327 33.944 81.9767 34.264 81.9767 34.632C81.9767 35.032 81.8327 35.36 81.5447 35.616C81.2727 35.872 80.9287 36 80.5127 36H72.4727C72.0567 36 71.7047 35.864 71.4167 35.592C71.1447 35.304 71.0087 34.952 71.0087 34.536V20.664C71.0087 20.248 71.1447 19.904 71.4167 19.632C71.7047 19.344 72.0567 19.2 72.4727 19.2H80.5127C80.9287 19.2 81.2727 19.336 81.5447 19.608C81.8327 19.864 81.9767 20.2 81.9767 20.616C81.9767 21.016 81.8407 21.344 81.5687 21.6C81.2967 21.84 80.9447 21.96 80.5127 21.96H74.0087V26.04H79.4327C79.8487 26.04 80.1927 26.176 80.4647 26.448C80.7527 26.704 80.8967 27.04 80.8967 27.456C80.8967 27.856 80.7607 28.184 80.4887 28.44C80.2167 28.68 79.8647 28.8 79.4327 28.8H74.0087V33.24H80.5127Z" fill="white"/>
<path d="M98.7762 33.648C98.9842 33.776 99.1442 33.944 99.2562 34.152C99.3842 34.36 99.4482 34.576 99.4482 34.8C99.4482 35.088 99.3522 35.352 99.1602 35.592C98.9202 35.88 98.5522 36.024 98.0562 36.024C97.6722 36.024 97.3202 35.936 97.0002 35.76C95.8482 35.104 95.2722 33.768 95.2722 31.752C95.2722 31.176 95.0802 30.72 94.6962 30.384C94.3282 30.048 93.7922 29.88 93.0882 29.88H88.6002V34.536C88.6002 34.968 88.4802 35.32 88.2402 35.592C88.0162 35.864 87.7122 36 87.3282 36C86.8642 36 86.4562 35.864 86.1042 35.592C85.7682 35.304 85.6002 34.952 85.6002 34.536V20.664C85.6002 20.248 85.7362 19.904 86.0082 19.632C86.2962 19.344 86.6482 19.2 87.0642 19.2H93.9762C94.8082 19.2 95.5922 19.424 96.3282 19.872C97.0642 20.32 97.6482 20.936 98.0802 21.72C98.5282 22.504 98.7522 23.384 98.7522 24.36C98.7522 25.16 98.5362 25.944 98.1042 26.712C97.6722 27.464 97.1122 28.064 96.4242 28.512C97.4322 29.216 97.9842 30.16 98.0802 31.344C98.1282 31.6 98.1522 31.848 98.1522 32.088C98.2162 32.584 98.2802 32.944 98.3442 33.168C98.4082 33.376 98.5522 33.536 98.7762 33.648ZM93.8562 27.408C94.1442 27.408 94.4242 27.272 94.6962 27C94.9682 26.728 95.1922 26.368 95.3682 25.92C95.5442 25.456 95.6322 24.96 95.6322 24.432C95.6322 23.984 95.5442 23.576 95.3682 23.208C95.1922 22.824 94.9682 22.52 94.6962 22.296C94.4242 22.072 94.1442 21.96 93.8562 21.96H88.6002V27.408H93.8562Z" fill="white"/>
<path d="M104.35 30.696C103.806 30.696 103.51 30.392 103.462 29.784L102.766 20.952C102.734 20.456 102.862 20.04 103.15 19.704C103.454 19.368 103.846 19.2 104.326 19.2C104.806 19.2 105.198 19.368 105.502 19.704C105.806 20.04 105.934 20.456 105.886 20.952L105.214 29.784C105.166 30.392 104.878 30.696 104.35 30.696ZM104.182 36C103.718 36 103.358 35.88 103.102 35.64C102.862 35.384 102.742 35.024 102.742 34.56V34.152C102.742 33.688 102.862 33.336 103.102 33.096C103.358 32.84 103.718 32.712 104.182 32.712H104.494C104.958 32.712 105.31 32.84 105.55 33.096C105.806 33.336 105.934 33.688 105.934 34.152V34.56C105.934 35.024 105.806 35.384 105.55 35.64C105.31 35.88 104.958 36 104.494 36H104.182Z" fill="white"/>
<path d="M5.4687 0.799971C6.47136 0.799971 7.33003 1.05064 8.0447 1.55197C8.77003 2.04264 9.31936 2.71464 9.6927 3.56797C10.0767 4.41064 10.2687 5.35464 10.2687 6.39997C10.2687 7.4453 10.0767 8.39464 9.6927 9.24797C9.31936 10.0906 8.77003 10.7626 8.0447 11.264C7.33003 11.7546 6.47136 12 5.4687 12H1.6447C1.36736 12 1.1327 11.9093 0.940696 11.728C0.759363 11.536 0.668696 11.3013 0.668696 11.024V1.77597C0.668696 1.49864 0.759363 1.2693 0.940696 1.08797C1.1327 0.895971 1.36736 0.799971 1.6447 0.799971H5.4687ZM5.3087 10.16C6.2687 10.16 6.9887 9.80797 7.4687 9.10397C7.9487 8.3893 8.1887 7.48797 8.1887 6.39997C8.1887 5.31197 7.94336 4.41597 7.4527 3.71197C6.9727 2.9973 6.25803 2.63997 5.3087 2.63997H2.6687V10.16H5.3087Z" fill="white"/>
<path d="M22.4422 10.16C22.7195 10.16 22.9489 10.256 23.1302 10.448C23.3222 10.6293 23.4182 10.8426 23.4182 11.088C23.4182 11.3546 23.3222 11.5733 23.1302 11.744C22.9489 11.9146 22.7195 12 22.4422 12H17.0822C16.8049 12 16.5702 11.9093 16.3782 11.728C16.1969 11.536 16.1062 11.3013 16.1062 11.024V1.77597C16.1062 1.49864 16.1969 1.2693 16.3782 1.08797C16.5702 0.895971 16.8049 0.799971 17.0822 0.799971H22.4422C22.7195 0.799971 22.9489 0.890637 23.1302 1.07197C23.3222 1.24264 23.4182 1.46664 23.4182 1.74397C23.4182 2.01064 23.3275 2.2293 23.1462 2.39997C22.9649 2.55997 22.7302 2.63997 22.4422 2.63997H18.1062V5.35997H21.7222C21.9995 5.35997 22.2289 5.45064 22.4102 5.63197C22.6022 5.80264 22.6982 6.02664 22.6982 6.30397C22.6982 6.57064 22.6075 6.7893 22.4262 6.95997C22.2449 7.11997 22.0102 7.19997 21.7222 7.19997H18.1062V10.16H22.4422Z" fill="white"/>
<path d="M37.7584 0.799971C38.0144 0.799971 38.2224 0.885304 38.3824 1.05597C38.5424 1.22664 38.6224 1.43997 38.6224 1.69597V11.024C38.6224 11.3013 38.5264 11.536 38.3344 11.728C38.1531 11.9093 37.9238 12 37.6464 12C37.4971 12 37.3478 11.9786 37.1984 11.936C37.0598 11.8826 36.9584 11.8133 36.8944 11.728L31.0224 4.27197V11.104C31.0224 11.36 30.9371 11.5733 30.7664 11.744C30.6064 11.9146 30.3931 12 30.1264 12C29.8704 12 29.6624 11.9146 29.5024 11.744C29.3424 11.5733 29.2624 11.36 29.2624 11.104V1.77597C29.2624 1.49864 29.3531 1.2693 29.5344 1.08797C29.7264 0.895971 29.9611 0.799971 30.2384 0.799971C30.3984 0.799971 30.5531 0.831971 30.7024 0.895971C30.8624 0.959971 30.9798 1.0453 31.0544 1.15197L36.8784 8.57597V1.69597C36.8784 1.43997 36.9584 1.22664 37.1184 1.05597C37.2891 0.885304 37.5024 0.799971 37.7584 0.799971Z" fill="white"/>
<path d="M52.9801 0.783971C53.2574 0.783971 53.4814 0.874638 53.6521 1.05597C53.8227 1.2373 53.9081 1.47197 53.9081 1.75997V7.55197C53.9081 8.4373 53.7214 9.2213 53.3481 9.90397C52.9747 10.5866 52.4521 11.12 51.7801 11.504C51.1081 11.888 50.3401 12.08 49.4761 12.08C48.6121 12.08 47.8387 11.888 47.1561 11.504C46.4841 11.12 45.9614 10.5866 45.5881 9.90397C45.2147 9.2213 45.0281 8.4373 45.0281 7.55197V1.75997C45.0281 1.48264 45.1241 1.2533 45.3161 1.07197C45.5081 0.879971 45.7534 0.783971 46.0521 0.783971C46.3081 0.783971 46.5321 0.879971 46.7241 1.07197C46.9161 1.2533 47.0121 1.48264 47.0121 1.75997V7.55197C47.0121 8.06397 47.1241 8.52264 47.3481 8.92797C47.5721 9.32264 47.8707 9.62664 48.2441 9.83997C48.6281 10.0533 49.0387 10.16 49.4761 10.16C49.9347 10.16 50.3614 10.0533 50.7561 9.83997C51.1614 9.62664 51.4814 9.32264 51.7161 8.92797C51.9614 8.52264 52.0841 8.06397 52.0841 7.55197V1.75997C52.0841 1.47197 52.1641 1.2373 52.3241 1.05597C52.4841 0.874638 52.7027 0.783971 52.9801 0.783971Z" fill="white"/>
<path d="M68.8053 0.799971C69.0613 0.799971 69.2693 0.885304 69.4293 1.05597C69.5893 1.22664 69.6693 1.43997 69.6693 1.69597V11.024C69.6693 11.3013 69.5733 11.536 69.3813 11.728C69.2 11.9093 68.9707 12 68.6933 12C68.544 12 68.3947 11.9786 68.2453 11.936C68.1067 11.8826 68.0053 11.8133 67.9413 11.728L62.0693 4.27197V11.104C62.0693 11.36 61.984 11.5733 61.8133 11.744C61.6533 11.9146 61.44 12 61.1733 12C60.9173 12 60.7093 11.9146 60.5493 11.744C60.3893 11.5733 60.3093 11.36 60.3093 11.104V1.77597C60.3093 1.49864 60.4 1.2693 60.5813 1.08797C60.7733 0.895971 61.008 0.799971 61.2853 0.799971C61.4453 0.799971 61.6 0.831971 61.7493 0.895971C61.9093 0.959971 62.0267 1.0453 62.1013 1.15197L67.9253 8.57597V1.69597C67.9253 1.43997 68.0053 1.22664 68.1653 1.05597C68.336 0.885304 68.5493 0.799971 68.8053 0.799971Z" fill="white"/>
<path d="M83.9149 1.34397C84.2456 1.51464 84.4109 1.78664 84.4109 2.15997C84.4109 2.38397 84.3309 2.60264 84.1709 2.81597C84.0003 3.03997 83.7816 3.15197 83.5149 3.15197C83.3336 3.15197 83.1523 3.10397 82.9709 3.00797C82.4483 2.76264 81.8829 2.63997 81.2749 2.63997C80.5283 2.63997 79.8776 2.79997 79.3229 3.11997C78.7683 3.4293 78.3416 3.87197 78.0429 4.44797C77.7443 5.0133 77.5949 5.66397 77.5949 6.39997C77.5949 7.65864 77.9309 8.6133 78.6029 9.26397C79.2856 9.91464 80.1763 10.24 81.2749 10.24C81.9256 10.24 82.4909 10.1173 82.9709 9.87197C83.1629 9.78664 83.3336 9.74397 83.4829 9.74397C83.7603 9.74397 83.9949 9.8613 84.1869 10.096C84.3469 10.2986 84.4269 10.5173 84.4269 10.752C84.4269 10.9226 84.3843 11.0773 84.299 11.216C84.2136 11.3546 84.0909 11.4613 83.9309 11.536C83.0989 11.952 82.2136 12.16 81.2749 12.16C80.2296 12.16 79.2696 11.9413 78.3949 11.504C77.5203 11.056 76.8216 10.4 76.2989 9.53597C75.7763 8.67197 75.5149 7.62664 75.5149 6.39997C75.5149 5.31197 75.7603 4.33597 76.2509 3.47197C76.7523 2.60797 77.4403 1.93597 78.3149 1.45597C79.1896 0.965304 80.1763 0.719971 81.2749 0.719971C82.2243 0.719971 83.1043 0.927971 83.9149 1.34397Z" fill="white"/>
<path d="M92.1062 11.024C92.1062 11.3013 92.0049 11.536 91.8022 11.728C91.5995 11.9093 91.3649 12 91.0982 12C90.8102 12 90.5702 11.9093 90.3782 11.728C90.1969 11.536 90.1062 11.3013 90.1062 11.024V1.77597C90.1062 1.49864 90.2022 1.2693 90.3942 1.08797C90.5862 0.895971 90.8315 0.799971 91.1302 0.799971C91.3969 0.799971 91.6262 0.895971 91.8182 1.08797C92.0102 1.2693 92.1062 1.49864 92.1062 1.77597V11.024Z" fill="white"/>
<path d="M107.296 10.752C107.35 10.8906 107.376 11.0186 107.376 11.136C107.376 11.4133 107.286 11.6426 107.104 11.824C106.923 11.9946 106.715 12.08 106.48 12.08C106.288 12.08 106.112 12.0213 105.952 11.904C105.803 11.7866 105.686 11.6266 105.6 11.424L104.768 9.48797H100L99.1684 11.44C99.0938 11.6426 98.9764 11.8026 98.8164 11.92C98.6671 12.0266 98.5018 12.08 98.3204 12.08C98.0431 12.08 97.8298 12.0053 97.6804 11.856C97.5418 11.7066 97.4724 11.504 97.4724 11.248C97.4724 11.152 97.4884 11.0506 97.5204 10.944L101.504 1.37597C101.59 1.16264 101.718 0.997304 101.888 0.879971C102.059 0.762637 102.251 0.714637 102.464 0.73597C102.656 0.73597 102.832 0.794637 102.992 0.911971C103.163 1.01864 103.286 1.1733 103.36 1.37597L107.296 10.752ZM103.984 7.64797L102.368 3.90397L100.784 7.64797H103.984Z" fill="white"/>
</svg>
