<svg width="88" height="82" viewBox="0 0 88 82" fill="none" xmlns="http://www.w3.org/2000/svg">
<path fill-rule="evenodd" clip-rule="evenodd" d="M47.5844 8.37164C52.9814 8.48398 55.9424 0.980565 61.326 0.605002C66.3639 0.253563 72.2368 2.45248 74.97 6.46122C77.8208 10.6424 75.5351 16.2392 75.3739 21.2087C75.2514 24.9864 72.8406 28.7834 74.1301 32.3617C76.5949 39.2013 86.7876 43.4641 85.9831 50.6483C85.3441 56.3553 77.0554 59.4788 71.0171 60.1627C64.6905 60.8792 67.1851 67.7113 61.326 70.075C53.4031 73.2713 46.0751 75.5199 37.7013 73.6032C29.1823 71.6532 26.8894 74.1636 21.3008 67.7908C17.5278 63.4884 12.225 66.349 7.95159 62.4856C4.20701 59.1004 12.0986 37.6145 13.9953 33.0602C15.9107 28.4608 23.9767 27.6667 25.1491 22.8503C26.4924 17.332 18.4506 11.9995 20.4235 6.65227C22.0751 2.17621 28.5585 -0.289984 33.5701 0.0272642C39.1422 0.380002 42.001 8.25543 47.5844 8.37164Z" fill="#94FDD1" fill-opacity="0.37"/>
<path fill-rule="evenodd" clip-rule="evenodd" d="M44.9638 45.0171C45.2247 44.9825 45.5032 44.9947 45.7459 45.1063C46.2619 45.3436 46.4086 46.0041 46.4015 46.5408C46.3939 47.1186 46.2806 47.7497 46.6861 48.2152C46.8725 48.4292 47.1043 48.593 47.2873 48.8109C47.4829 49.0439 47.6363 49.3103 47.7499 49.5965C47.9585 50.1222 48.0609 50.7403 47.8702 51.2917C47.7022 51.7772 47.2796 52.2154 47.3709 52.7674C47.4662 53.3433 48.0021 53.7835 48.3372 54.2125C48.7164 54.6979 49.0655 55.3183 49.1229 55.9549C49.1779 56.5649 48.9327 57.1819 48.5566 57.6431C47.8049 58.5646 46.6752 59.0163 45.536 59.0135C45.0523 59.0123 44.5047 58.9886 44.0873 58.707C43.9583 58.62 43.8903 58.5224 43.8136 58.3866C43.7448 58.2649 43.654 58.1857 43.5489 58.0996C43.3179 57.9104 43.1511 57.6555 43.0446 57.3701C42.6313 56.2615 42.9616 54.8902 43.5403 53.9058C43.6774 53.6726 43.7896 53.4481 43.723 53.1701C43.6535 52.88 43.4827 52.6182 43.3316 52.3688C43.1823 52.1223 43.0118 51.8871 42.8951 51.6205C42.7729 51.3413 42.7385 51.0489 42.7601 50.7433C42.8007 50.1693 43.0294 49.6396 43.3532 49.178C43.6651 48.7333 44.0314 48.3078 44.0322 47.7252C44.0331 47.1077 43.652 46.5583 43.8143 45.9305C43.8816 45.6705 44.0166 45.4038 44.2342 45.248C44.4428 45.0985 44.7184 45.0496 44.9638 45.0171Z" fill="#00C271"/>
<path fill-rule="evenodd" clip-rule="evenodd" d="M44.7931 46.0043C44.798 45.9213 44.8888 45.8716 44.9603 45.8932C45.0544 45.9217 45.0526 46.017 45.0501 46.1019C45.0425 46.3627 45.0774 46.6162 45.1352 46.8693C45.2555 47.3955 45.4778 47.8803 45.654 48.3857C45.8299 48.8908 45.9126 49.4122 45.8093 49.9466C45.712 50.4505 45.5591 50.9413 45.4595 51.4458C45.3717 51.8904 45.2783 52.3593 45.412 52.8028C45.5406 53.2298 45.8251 53.5774 46.0298 53.9633C46.4538 54.7619 46.6419 55.6479 46.667 56.5597C46.6787 56.9831 46.6682 57.4104 46.5775 57.8256C46.5254 58.0647 46.4552 58.3879 46.2661 58.553C46.1789 58.6291 46.0297 58.6554 45.9563 58.5427C45.8874 58.4369 45.9479 58.2733 45.9697 58.1606C46.0645 57.6727 46.0835 57.1741 46.0609 56.6788C46.0389 56.1989 45.9866 55.7199 45.8472 55.2616C45.7178 54.8364 45.5213 54.4544 45.2899 54.0824C45.0542 53.7033 44.8092 53.3234 44.7118 52.8741C44.6128 52.4179 44.6932 51.9537 44.8007 51.5061C44.9144 51.0328 45.0633 50.573 45.2172 50.1125C45.3673 49.6637 45.4204 49.2391 45.3376 48.7695C45.174 47.8415 44.7361 46.9706 44.7931 46.0043Z" fill="#4EF4AF"/>
<path fill-rule="evenodd" clip-rule="evenodd" d="M51.8537 46.1427C52.1766 46.2489 52.4973 46.4203 52.7275 46.6891C53.2169 47.2605 53.0667 48.1242 52.7965 48.7551C52.5057 49.434 52.065 50.1165 52.3134 50.8956C52.4276 51.2537 52.6196 51.5781 52.728 51.939C52.8437 52.3246 52.8937 52.7263 52.8873 53.1287C52.8755 53.8679 52.694 54.6567 52.2012 55.2013C51.7674 55.6807 51.058 55.9608 50.8957 56.6651C50.7265 57.3998 51.1403 58.2225 51.324 58.9186C51.5319 59.7064 51.6387 60.6369 51.3954 61.422C51.1623 62.1745 50.5737 62.7661 49.9075 63.0994C48.5764 63.7656 47.0308 63.6631 45.6961 63.0177C45.1294 62.7437 44.4986 62.4071 44.1465 61.8389C44.0376 61.6632 44.0054 61.5094 43.9817 61.3057C43.9604 61.123 43.8925 60.9781 43.8113 60.817C43.6326 60.4631 43.5614 60.0676 43.5758 59.6701C43.6318 58.1261 44.6884 56.6905 45.8473 55.8525C46.1219 55.6539 46.3631 55.4518 46.4206 55.0855C46.4806 54.7031 46.408 54.2973 46.3524 53.9172C46.2976 53.5415 46.2124 53.1673 46.2055 52.7863C46.1984 52.3872 46.3007 52.022 46.4751 51.6728C46.8028 51.0168 47.3295 50.5192 47.9346 50.1558C48.5174 49.8057 49.1545 49.5089 49.4397 48.8204C49.7421 48.0906 49.5631 47.2262 50.0598 46.5752C50.2655 46.3056 50.554 46.0663 50.8853 46.0046C51.2029 45.9454 51.55 46.0428 51.8537 46.1427Z" fill="#2CDD93"/>
<path fill-rule="evenodd" clip-rule="evenodd" d="M51.194 47.3496C51.2398 47.2541 51.37 47.2468 51.4431 47.313C51.5394 47.4002 51.4912 47.5119 51.4473 47.611C51.3123 47.9156 51.2305 48.2356 51.1758 48.5682C51.0621 49.2596 51.0877 49.96 51.0493 50.6586C51.0109 51.3566 50.8554 52.021 50.4764 52.5952C50.119 53.1366 49.703 53.631 49.3426 54.1719C49.025 54.6487 48.6891 55.1509 48.631 55.7521C48.575 56.3307 48.7395 56.9039 48.7925 57.4771C48.9021 58.6636 48.6937 59.8196 48.2824 60.9137C48.0913 61.4217 47.8725 61.9218 47.5657 62.362C47.3891 62.6156 47.1509 62.9584 46.8499 63.0465C46.7112 63.0872 46.524 63.0336 46.4927 62.8584C46.4632 62.6941 46.613 62.5346 46.6931 62.4135C47.0397 61.8896 47.303 61.31 47.516 60.7105C47.7223 60.1298 47.8927 59.5328 47.9512 58.911C48.0055 58.3339 47.9603 57.7699 47.8697 57.198C47.7773 56.6152 47.6745 56.0262 47.7777 55.4389C47.8826 54.8424 48.201 54.3383 48.5431 53.8693C48.9048 53.3733 49.3012 52.9134 49.7038 52.4554C50.0962 52.0092 50.3637 51.5366 50.4939 50.9333C50.7511 49.7416 50.6601 48.4615 51.194 47.3496Z" fill="#00C271"/>
<path fill-rule="evenodd" clip-rule="evenodd" d="M41.8713 50.5264C42.4082 50.5264 42.8802 50.8347 43.2055 51.2722C43.5863 51.7844 43.6632 52.4099 43.8178 53.0204C43.8947 53.3242 44.0271 53.6257 44.2589 53.8321C44.4699 54.0199 44.7376 54.0574 44.9901 54.1491C45.4946 54.3324 45.902 54.7739 46.0629 55.3126C46.2592 55.9697 46.0513 56.6324 46.0871 57.2984C46.12 57.91 46.6766 58.2916 47.1244 58.5847C47.566 58.8738 47.9638 59.1445 48.0968 59.7077C48.2379 60.305 48.2852 60.9717 48.0898 61.5618C47.7646 62.5443 46.8128 62.977 45.893 63.044C45.0584 63.1049 44.0089 63.0093 43.382 62.353C43.0069 61.9602 42.8711 61.4108 42.8879 60.8643C42.8984 60.5244 42.9606 60.1877 43.0409 59.8593C43.0978 59.6265 43.1748 59.3948 43.1967 59.1542C43.255 58.5143 42.709 58.3914 42.2443 58.2157C41.6538 57.9924 41.2403 57.5706 40.9529 56.983C40.6851 56.4359 40.5728 55.8217 40.7333 55.2193C40.8153 54.9118 40.9639 54.6327 41.1656 54.3953C41.2543 54.2909 41.3794 54.2037 41.4595 54.094C41.5343 53.9915 41.518 53.8587 41.4923 53.7386C41.3731 53.1841 41.0019 52.7249 40.8691 52.1713C40.7492 51.6717 40.8201 51.0498 41.2418 50.7275C41.4239 50.5882 41.6486 50.5279 41.8713 50.5264Z" fill="#4EF4AF"/>
<path fill-rule="evenodd" clip-rule="evenodd" d="M42.6029 51.971C43.172 52.6277 43.3266 53.5188 43.372 54.3824C43.3975 54.8667 43.371 55.3775 43.5023 55.8472C43.6147 56.2492 43.8781 56.5566 44.1497 56.847C44.6963 57.4317 45.3059 58.0262 45.4658 58.8724C45.5596 59.369 45.4963 59.8819 45.6259 60.3731C45.7437 60.8195 45.9513 61.2581 46.2037 61.6351C46.4069 61.9387 46.6717 62.1711 46.8938 62.4541C46.9616 62.5405 47.0587 62.6676 47.0307 62.7896C46.998 62.9324 46.8301 62.9776 46.711 62.9552C46.4332 62.9029 46.1994 62.6155 46.0177 62.4066C45.7522 62.1012 45.5265 61.7726 45.343 61.4041C45.1394 60.9948 44.9754 60.5604 44.9054 60.1013C44.8327 59.6249 44.8689 59.1284 44.7029 58.6712C44.4235 57.9019 43.7459 57.448 43.2561 56.8484C42.6457 56.1013 42.7367 55.1714 42.7992 54.2524C42.8336 53.7474 42.8677 53.177 42.6322 52.7159C42.5422 52.5399 42.3417 52.3758 42.3031 52.1757C42.2677 51.9924 42.4609 51.8071 42.6029 51.971Z" fill="#2CDD93"/>
<path fill-rule="evenodd" clip-rule="evenodd" d="M43.2095 62.7634C43.2095 66.5193 43.7753 68.4873 46.7621 68.4873C49.749 68.4873 50.3147 66.5193 50.3148 62.7634H43.2095Z" fill="#5AADFF"/>
<path fill-rule="evenodd" clip-rule="evenodd" d="M65.4362 29.287C65.6146 28.0302 65.4779 26.7277 64.7602 25.6456C62.6922 22.528 58.9135 26.0452 59.0361 28.2346C59.1588 30.4241 61.6328 34.5314 62.853 34.1214C63.3396 33.9579 64.0703 33.0726 64.6418 31.8695L66.5655 36.6304L69.939 34.3744L65.4362 29.287Z" fill="#F1CAB1"/>
<g filter="url(#filter0_d)">
<path d="M61.6654 23.6745C61.4447 23.8221 60.2785 24.677 59.8789 25.0533C59.3268 25.5733 58.5076 26.8974 58.5796 27.4662C58.6515 28.0349 59.0787 28.5035 59.8153 27.9431C61.1633 28.4305 62.6808 28.3674 62.8174 28.2915C62.8272 28.286 62.9079 27.2204 63.5573 27.2121C64.3101 27.2026 64.5846 27.9303 64.5806 28.6425L64.5805 28.6515C64.5783 29.0234 64.5751 29.5811 65.1413 29.6265C66.0422 29.6988 67.0243 27.5417 66.7611 26.4342C66.2736 24.3824 62.3032 23.3237 62.3032 23.3237C61.9715 23.5002 61.8065 23.5801 61.6654 23.6745Z" fill="#FBF681"/>
</g>
<path d="M60.5643 21.3458C59.6829 21.4428 60.2772 22.1272 60.6845 22.4573C61.5616 24.3852 61.3216 22.1622 62.8359 23.7951C64.3502 25.428 62.7158 22.6836 64.5747 23.3789C66.4335 24.0741 65.3839 22.6151 66.1933 21.8512C67.3378 20.771 65.1437 20.3922 64.3865 19.5758C62.6934 17.7502 62.8199 19.5232 61.2535 19.4705C59.687 19.4179 61.6661 21.2246 60.5643 21.3458Z" fill="#FBF681"/>
<path fill-rule="evenodd" clip-rule="evenodd" d="M77.4256 62.391C75.3466 62.6014 68.1955 63.6143 64.9633 64.5656C64.0345 64.839 63.1378 65.1115 62.2977 65.3741C59.8008 66.1547 60.7052 71.2521 63.0578 70.3887C68.9167 68.2386 77.0691 64.8626 77.7777 64.5971C78.7709 64.225 78.7322 62.2588 77.4256 62.391Z" fill="#B28B67"/>
<path fill-rule="evenodd" clip-rule="evenodd" d="M70.3521 63.2644C71.1221 62.6075 71.8336 62.0077 72.4488 61.5082C76.4228 58.2813 76.51 55.0524 73.1728 49.9464L65.1355 54.3646C64.014 55.4949 58.6428 62.3455 55.8749 65.9402C54.043 68.3194 56.6241 71.8472 58.4304 72.1415C58.467 72.2004 58.5109 72.2299 58.5624 72.2256C67.201 71.5069 72.0598 66.7214 74.1977 66.2218L73.6736 62.7606L70.3521 63.2644Z" fill="#1F28CF"/>
<path fill-rule="evenodd" clip-rule="evenodd" d="M76.6114 62.2424C77.1017 62.0338 77.4693 61.9274 77.7142 61.9232C78.0121 61.9181 78.4475 61.9644 79.0204 62.0621C79.0259 62.4364 79.0749 65.8004 79.1674 72.1541C78.3709 72.43 77.9367 72.286 77.8646 71.7221C77.7926 71.1581 77.7281 70.6898 77.6713 70.3169L75.6727 65.6592C75.6343 65.5696 75.6702 65.4632 75.7529 65.4215C75.7543 65.4208 75.7557 65.4201 75.7572 65.4195L76.4279 65.1064C76.6455 64.5795 76.752 64.1525 76.7472 63.8255C76.7434 63.5598 76.639 63.1945 76.434 62.7298L76.434 62.7298C76.3554 62.5514 76.4251 62.3377 76.5898 62.2525C76.5969 62.2489 76.6041 62.2455 76.6114 62.2424Z" fill="#333333"/>
<path fill-rule="evenodd" clip-rule="evenodd" d="M82.5035 59.5993C80.4245 59.8096 73.2734 60.8226 70.0412 61.7739C69.1123 62.0472 68.2157 62.3198 67.3756 62.5824C64.8787 63.3629 65.7831 68.4604 68.1357 67.597C73.9945 65.4468 82.147 62.0708 82.8556 61.8053C83.8488 61.4332 83.8101 59.467 82.5035 59.5993Z" fill="#B28B67"/>
<path fill-rule="evenodd" clip-rule="evenodd" d="M75.43 60.4729C76.2 59.816 76.9115 59.2162 77.5267 58.7167C81.5007 55.4898 81.5879 52.2609 78.2506 47.1549L70.2134 51.5731C69.0919 52.7034 63.7207 59.5539 60.9528 63.1487C59.1209 65.5279 61.702 69.0557 63.5083 69.35C63.5449 69.4089 63.5888 69.4384 63.6402 69.4341C72.2788 68.7154 77.1377 63.9299 79.2756 63.4303L78.7515 59.9691L75.43 60.4729Z" fill="#2B44FF"/>
<path fill-rule="evenodd" clip-rule="evenodd" d="M81.6893 59.4511C82.1796 59.2425 82.5472 59.1361 82.7921 59.1319C83.0899 59.1268 83.5253 59.1731 84.0983 59.2709C84.1037 59.6452 84.1527 63.0092 84.2453 69.3628C83.4488 69.6388 83.0145 69.4948 82.9425 68.9308C82.8705 68.3669 82.806 67.8985 82.7491 67.5256L80.7506 62.868C80.7122 62.7784 80.748 62.6719 80.8308 62.6303C80.8322 62.6296 80.8336 62.6289 80.835 62.6282L81.5058 62.3152C81.7234 61.7882 81.8299 61.3613 81.8251 61.0342C81.8212 60.7685 81.7168 60.4033 81.5119 59.9385L81.5119 59.9385C81.4333 59.7601 81.503 59.5465 81.6676 59.4613C81.6747 59.4576 81.6819 59.4542 81.6893 59.4511Z" fill="#333333"/>
<ellipse cx="68.9103" cy="71.5" rx="16.3558" ry="1.5" fill="#333333" fill-opacity="0.22"/>
<path fill-rule="evenodd" clip-rule="evenodd" d="M56.2868 47.5052L53.5268 46.6391C52.888 45.3013 52.3279 44.6862 51.8465 44.7937C51.4397 44.6974 52.4527 46.3378 51.7221 46.3516C50.9915 46.3653 49.0029 45.4056 48.7669 45.7558C48.4177 46.2738 49.0671 47.4465 49.6539 47.9659C50.7507 48.9365 51.5404 49.1678 53.3955 49.2715C54.3654 49.3256 55.4667 49.6388 56.6994 50.211L56.2868 47.5052Z" fill="#F1CAB1"/>
<path d="M58.1213 35.5069L63.1054 40.0895L60.5741 42.0393L57.261 37.083C55.233 35.9627 54.339 35.2743 54.5789 35.0179C54.9387 34.6333 55.4431 35.1363 55.7247 34.9193C56.0064 34.7024 55.7441 33.6661 55.4563 32.6943C55.1685 31.7225 55.6385 31.9061 55.8917 32.0931C56.6721 32.9596 57.4153 34.0976 58.1213 35.5069Z" fill="#EFB997"/>
<path fill-rule="evenodd" clip-rule="evenodd" d="M67.5947 41.7365C65.6319 41.2761 63.0941 40.2421 60.6602 37.6943L59.0573 40.1052C60.5943 42.6107 62.9855 44.9204 65.3728 45.3766C67.2542 45.7361 68.6751 43.4977 67.5947 41.7365Z" fill="black"/>
<path fill-rule="evenodd" clip-rule="evenodd" d="M65.2804 46.0596C63.3162 47.1267 59.6905 47.3106 54.403 46.6114C53.7514 49.6286 53.5912 51.7057 53.9226 52.8428C58.6152 54.2005 62.4349 54.3865 65.4158 53.7365C65.7158 55.6662 66.3053 57.4286 67.3679 58.9118C69.5523 61.961 77.5632 56.7017 80.6047 56.6159C81.1016 49.755 77.0351 48.0027 76.1829 43.8967C75.2498 39.4001 70.4849 33.2867 69.9945 33.4058L65.5221 34.4913C65.9856 37.9858 65.5264 42.0726 65.2804 46.0596Z" fill="#333333"/>
<path fill-rule="evenodd" clip-rule="evenodd" d="M19.9497 26.2961L25.9384 49.0636L30.3078 65.8445H33.4947L28.8516 26.2961H19.9497Z" fill="black"/>
<path fill-rule="evenodd" clip-rule="evenodd" d="M17.9245 26.448C17.786 38.1826 17.3137 44.583 17.1682 45.6492C17.0228 46.7153 14.8237 53.4977 10.5709 65.9964H13.8723C19.2864 54.006 22.3087 47.2236 22.9392 45.6492C23.5696 44.0747 25.5153 37.6743 28.4459 26.448H17.9245Z" fill="#303030"/>
<path fill-rule="evenodd" clip-rule="evenodd" d="M10.2756 69.2175L10.4408 65.4595H13.9096C15.5545 66.7121 17.7018 67.7262 20.3518 68.5017V69.2175H14.0748L11.9275 68.8596V69.2175H10.2756Z" fill="#F77A79"/>
<path fill-rule="evenodd" clip-rule="evenodd" d="M29.437 69.2175L29.6022 65.4595H33.071C34.7158 66.7121 36.8632 67.7262 39.5131 68.5017V69.2175H33.2362L31.0888 68.8596V69.2175H29.437Z" fill="#F77A79"/>
<ellipse cx="23.0053" cy="70.4431" rx="19.0786" ry="1.43162" fill="#333333" fill-opacity="0.22"/>
<path fill-rule="evenodd" clip-rule="evenodd" d="M34.044 5.03295C34.1204 3.76411 34.5137 2.52437 35.4302 1.63587C38.071 -0.924143 41.0592 3.39437 40.5028 5.50342C39.9464 7.61246 36.7118 11.0437 35.6021 10.3578C35.1596 10.0843 34.6227 9.0489 34.3046 7.74048L31.4769 11.9387L28.6331 8.94642L34.044 5.03295Z" fill="#FAC8A8"/>
<path fill-rule="evenodd" clip-rule="evenodd" d="M37.5377 4.44263C36.1738 6.19997 35.7254 7.32435 36.1925 7.81579C36.8931 8.55298 37.9195 8.69657 38.227 9.02004C38.4511 9.25583 38.1287 9.507 37.7782 9.57596C37.489 9.63286 36.7316 9.18402 36.4733 9.47215C36.215 9.76027 36.8864 10.0335 36.7332 10.2044C36.4798 10.4871 36.0862 11.1057 35.6334 10.6292C35.1751 10.147 34.0233 8.58357 34.4587 7.60977C34.7397 6.98131 35.5292 5.89701 36.8271 4.35687C36.8026 4.32404 36.7759 4.29243 36.7472 4.26224C36.3546 3.8491 35.7271 3.85902 35.3457 4.28441C35.1522 4.50036 35.0592 4.78186 35.066 5.06076C34.6759 5.13923 34.256 5.20803 33.8016 5.2569C33.4704 3.90595 34.2353 1.77614 36.3118 1.14188C37.1633 0.656874 37.9892 0.78815 38.7206 1.21524C39.3739 1.49349 39.8773 1.97712 40.1713 2.5316C40.9027 3.44532 41.3789 4.4586 41.4405 4.82761C40.7068 5.64601 40.3428 5.73481 39.1117 4.39793C38.6469 4.25046 38.1394 4.30464 37.5377 4.44263Z" fill="#FF835B"/>
<path fill-rule="evenodd" clip-rule="evenodd" d="M36.3817 14.2654L37.6874 13.2866L52.1993 22.8359L40.3634 31.0564L36.3817 14.2654Z" fill="black" fill-opacity="0.1"/>
<path fill-rule="evenodd" clip-rule="evenodd" d="M36.3965 14.33L37.4694 13.5578L47.1149 26.3673L40.3634 31.0564L36.3965 14.33Z" fill="black" fill-opacity="0.1"/>
<path d="M36.3693 14.2489L37.6725 13.2365L38.5151 13.8295L36.6388 15.1227L36.3693 14.2489Z" fill="#3F4489"/>
<path d="M52.154 22.8656C53.4489 24.5134 42.0041 33.4215 40.4397 30.8999C38.8753 28.3783 50.8591 21.2177 52.154 22.8656Z" fill="#3F4489"/>
<path d="M48.0399 23.7594C48.0399 23.7594 47.6093 24.6666 48.0616 25.7216L44.4814 28.2364C44.4814 28.2364 44.2522 26.9174 43.0244 26.9129C43.0244 26.9129 45.4531 24.8333 48.0399 23.7594Z" fill="black"/>
<ellipse rx="0.591366" ry="2.28005" transform="matrix(0.523986 0.894153 -0.795109 0.546864 46.3018 27.0093)" fill="#F1C058"/>
<path d="M37.1202 16.7401L31.6603 20.6346L33.9549 22.9024L37.3811 18.6108C37.1258 18.3584 38.3399 16.8425 38.7342 15.9156C39.1286 14.9888 38.6415 15.1094 38.3693 15.2617C37.4978 16.0194 37.9787 15.4338 37.1202 16.7401Z" fill="#FCD2B6"/>
<path d="M33.7566 18.3355C33.7566 18.3355 29.4359 24.84 32.8913 10.6783C31.9789 10.0746 26.985 14.8779 27.8471 19.3106C28.7093 23.7432 31.222 25.1364 33.7152 24.4806C33.898 24.6618 36.1004 23.1938 36.9092 21.0976L33.7566 18.3355Z" fill="black"/>
<path fill-rule="evenodd" clip-rule="evenodd" d="M15.269 14.5186L17.6958 16.3477C11.8398 21.4286 8.72235 24.1046 8.34361 24.3758C7.49144 24.9859 7.33904 26.7701 7.18403 27.6743C5.97034 27.4316 7.12835 25.8399 5.58298 25.5562C4.17245 25.2974 2.73954 25.6664 2.03006 23.9203C1.94283 23.7056 2.01941 23.1997 2.61091 23.2011C4.08456 23.2046 6.35431 22.9799 6.82156 22.697C7.45874 22.3113 10.2746 19.5852 15.269 14.5186Z" fill="#FAC8A8"/>
<path fill-rule="evenodd" clip-rule="evenodd" d="M18.2388 22.6224C22.6374 25.6719 26.2933 27.6523 29.2067 28.5635C29.5677 28.6763 29.8964 28.1052 29.9309 27.6154C30.4681 19.9882 31.3827 13.5745 33.4134 9.17459C32.8651 9.17656 32.0823 8.79731 31.0648 8.03683C26.03 10.9773 22.2765 15.4473 18.2388 22.6224Z" fill="#DDE3E9"/>
<g filter="url(#filter1_d)">
<path fill-rule="evenodd" clip-rule="evenodd" d="M30.5088 7.26063L31.7349 7.9248C31.1809 9.8985 20.7127 35.0191 19.7735 44.5828L4.73242 36.4353C8.46538 29.2302 15.1301 21.7563 21.1605 15.7476C17.8022 16.7837 14.0076 19.5664 9.77685 24.0955L7.3211 21.7859C13.9292 13.1416 21.5534 8.28684 30.1937 7.22181C30.2241 7.19413 30.2544 7.16658 30.2846 7.13916L30.3931 7.19794C30.4458 7.1918 30.4986 7.1858 30.5514 7.17995L30.5088 7.26063Z" fill="#1B1B1B"/>
</g>
<ellipse rx="1.02324" ry="0.904021" transform="matrix(0.879288 0.476291 -0.419049 0.907964 32.481 11.9608)" fill="black"/>
<ellipse rx="1.02324" ry="0.904021" transform="matrix(0.879288 0.476291 -0.419049 0.907964 30.5867 10.9351)" fill="black"/>
<rect width="1.07709" height="1.13003" rx="0.538547" transform="matrix(0.879288 0.476291 -0.419049 0.907964 31.2498 10.6526)" fill="#535252"/>
<path d="M24.7007 26.653L25.1809 25.2124C26.6829 25.7593 29.7757 26.741 29.8348 26.9331C29.8939 27.1251 29.6378 28.3602 29.5393 28.7737C29.5393 28.7737 25.8457 27.3732 24.7007 26.653Z" fill="#F77A79"/>
<path d="M26.7321 27.6536L27.5594 25.861L28.9404 26.449L28.2686 28.3259L26.7321 27.6536Z" fill="#E5B159"/>
<path d="M50.9313 32.8649L47.8374 30.8278L52.3484 31.6607L51.8153 33.447L54.9092 35.4841L50.3982 34.6512L50.9313 32.8649Z" fill="#FF2F2F"/>
<path d="M53.3128 28.0748L50.8985 28.6747L53.8982 26.5527L54.0026 27.9034L56.417 27.3035L53.4173 29.4254L53.3128 28.0748Z" fill="#FF2F2F"/>
<path d="M48.1191 35.1547L47.2101 32.6585L49.5958 35.5539L48.3788 35.868L49.2878 38.3643L46.9021 35.4688L48.1191 35.1547Z" fill="#FF2F2F"/>
<g filter="url(#filter2_d)">
<rect width="4.67829" height="13.3993" transform="matrix(0.0885522 -0.996072 0.999784 0.0208017 37.519 72.4238)" fill="#F2F2F2"/>
</g>
<g filter="url(#filter3_d)">
<rect width="4.67829" height="13.3993" transform="matrix(0.0877843 -0.99614 0.99978 0.020985 37.8954 69.6819)" fill="#F2F2F2"/>
</g>
<g filter="url(#filter4_d)">
<rect width="5.07155" height="13.1147" transform="matrix(0.449707 -0.893176 0.992886 0.119069 37.7969 69.9097)" fill="#F2F2F2"/>
</g>
<g filter="url(#filter5_d)">
<rect width="5.07155" height="13.1147" transform="matrix(0.449707 -0.893176 0.992886 0.119069 38.4717 69.5513)" fill="#F2F2F2"/>
</g>
<g filter="url(#filter6_d)">
<rect width="5.07155" height="13.1147" transform="matrix(0.449707 -0.893176 0.992886 0.119069 38.8864 70.6252)" fill="#F2F2F2"/>
</g>
<defs>
<filter id="filter0_d" x="57.5752" y="23.3237" width="10.2294" height="8.30464" filterUnits="userSpaceOnUse" color-interpolation-filters="sRGB">
<feFlood flood-opacity="0" result="BackgroundImageFix"/>
<feColorMatrix in="SourceAlpha" type="matrix" values="0 0 0 0 0 0 0 0 0 0 0 0 0 0 0 0 0 0 127 0"/>
<feOffset dy="1"/>
<feGaussianBlur stdDeviation="0.5"/>
<feColorMatrix type="matrix" values="0 0 0 0 0 0 0 0 0 0 0 0 0 0 0 0 0 0 0.25 0"/>
<feBlend mode="normal" in2="BackgroundImageFix" result="effect1_dropShadow"/>
<feBlend mode="normal" in="SourceGraphic" in2="effect1_dropShadow" result="shape"/>
</filter>
<filter id="filter1_d" x="0.732422" y="7.13916" width="35.0025" height="45.4436" filterUnits="userSpaceOnUse" color-interpolation-filters="sRGB">
<feFlood flood-opacity="0" result="BackgroundImageFix"/>
<feColorMatrix in="SourceAlpha" type="matrix" values="0 0 0 0 0 0 0 0 0 0 0 0 0 0 0 0 0 0 127 0"/>
<feOffset dy="4"/>
<feGaussianBlur stdDeviation="2"/>
<feColorMatrix type="matrix" values="0 0 0 0 0 0 0 0 0 0 0 0 0 0 0 0 0 0 0.25 0"/>
<feBlend mode="normal" in2="BackgroundImageFix" result="effect1_dropShadow"/>
<feBlend mode="normal" in="SourceGraphic" in2="effect1_dropShadow" result="shape"/>
</filter>
<filter id="filter2_d" x="36.519" y="67.7639" width="15.8107" height="6.93864" filterUnits="userSpaceOnUse" color-interpolation-filters="sRGB">
<feFlood flood-opacity="0" result="BackgroundImageFix"/>
<feColorMatrix in="SourceAlpha" type="matrix" values="0 0 0 0 0 0 0 0 0 0 0 0 0 0 0 0 0 0 127 0"/>
<feOffset dy="1"/>
<feGaussianBlur stdDeviation="0.5"/>
<feColorMatrix type="matrix" values="0 0 0 0 0 0 0 0 0 0 0 0 0 0 0 0 0 0 0.25 0"/>
<feBlend mode="normal" in2="BackgroundImageFix" result="effect1_dropShadow"/>
<feBlend mode="normal" in="SourceGraphic" in2="effect1_dropShadow" result="shape"/>
</filter>
<filter id="filter3_d" x="36.8954" y="65.0217" width="15.8071" height="6.94142" filterUnits="userSpaceOnUse" color-interpolation-filters="sRGB">
<feFlood flood-opacity="0" result="BackgroundImageFix"/>
<feColorMatrix in="SourceAlpha" type="matrix" values="0 0 0 0 0 0 0 0 0 0 0 0 0 0 0 0 0 0 127 0"/>
<feOffset dy="1"/>
<feGaussianBlur stdDeviation="0.5"/>
<feColorMatrix type="matrix" values="0 0 0 0 0 0 0 0 0 0 0 0 0 0 0 0 0 0 0.25 0"/>
<feBlend mode="normal" in2="BackgroundImageFix" result="effect1_dropShadow"/>
<feBlend mode="normal" in="SourceGraphic" in2="effect1_dropShadow" result="shape"/>
</filter>
<filter id="filter4_d" x="36.7969" y="65.3799" width="17.3021" height="8.09135" filterUnits="userSpaceOnUse" color-interpolation-filters="sRGB">
<feFlood flood-opacity="0" result="BackgroundImageFix"/>
<feColorMatrix in="SourceAlpha" type="matrix" values="0 0 0 0 0 0 0 0 0 0 0 0 0 0 0 0 0 0 127 0"/>
<feOffset dy="1"/>
<feGaussianBlur stdDeviation="0.5"/>
<feColorMatrix type="matrix" values="0 0 0 0 0 0 0 0 0 0 0 0 0 0 0 0 0 0 0.25 0"/>
<feBlend mode="normal" in2="BackgroundImageFix" result="effect1_dropShadow"/>
<feBlend mode="normal" in="SourceGraphic" in2="effect1_dropShadow" result="shape"/>
</filter>
<filter id="filter5_d" x="37.4717" y="65.0215" width="17.3021" height="8.09135" filterUnits="userSpaceOnUse" color-interpolation-filters="sRGB">
<feFlood flood-opacity="0" result="BackgroundImageFix"/>
<feColorMatrix in="SourceAlpha" type="matrix" values="0 0 0 0 0 0 0 0 0 0 0 0 0 0 0 0 0 0 127 0"/>
<feOffset dy="1"/>
<feGaussianBlur stdDeviation="0.5"/>
<feColorMatrix type="matrix" values="0 0 0 0 0 0 0 0 0 0 0 0 0 0 0 0 0 0 0.25 0"/>
<feBlend mode="normal" in2="BackgroundImageFix" result="effect1_dropShadow"/>
<feBlend mode="normal" in="SourceGraphic" in2="effect1_dropShadow" result="shape"/>
</filter>
<filter id="filter6_d" x="37.8864" y="66.0955" width="17.3021" height="8.09135" filterUnits="userSpaceOnUse" color-interpolation-filters="sRGB">
<feFlood flood-opacity="0" result="BackgroundImageFix"/>
<feColorMatrix in="SourceAlpha" type="matrix" values="0 0 0 0 0 0 0 0 0 0 0 0 0 0 0 0 0 0 127 0"/>
<feOffset dy="1"/>
<feGaussianBlur stdDeviation="0.5"/>
<feColorMatrix type="matrix" values="0 0 0 0 0 0 0 0 0 0 0 0 0 0 0 0 0 0 0.25 0"/>
<feBlend mode="normal" in2="BackgroundImageFix" result="effect1_dropShadow"/>
<feBlend mode="normal" in="SourceGraphic" in2="effect1_dropShadow" result="shape"/>
</filter>
</defs>
</svg>
