<svg width="90" height="81" viewBox="0 0 90 81" fill="none" xmlns="http://www.w3.org/2000/svg">
<path fill-rule="evenodd" clip-rule="evenodd" d="M52.9117 69.0761C47.6149 69.5876 42.5311 71.4493 37.247 70.8288C31.8685 70.1972 25.8153 69.3521 22.1891 65.4683C18.5104 61.5282 21.4027 54.4783 18.0546 50.2727C13.9076 45.0636 3.90295 45.4293 1.37935 39.3287C-0.891789 33.8383 2.71744 27.1351 6.587 22.5505C10.337 18.1076 17.806 18.5654 22.1776 14.6871C26.5838 10.7781 25.7612 -0.363846 31.7109 0.261764C39.3555 1.06558 38.5887 16.2096 46.2077 17.2139C54.1105 18.2555 58.0468 4.52843 66.0188 4.78386C71.9974 4.97542 76.4997 12.4493 77.0003 18.2005C77.5489 24.5026 68.1518 28.816 68.6598 35.1213C69.1784 41.5586 78.9987 44.6146 79.6462 51.0411C80.2572 57.1051 77.0961 63.9889 71.9203 67.4805C66.6413 71.0417 59.3206 68.4572 52.9117 69.0761Z" fill="#94FDD1" fill-opacity="0.37"/>
<path fill-rule="evenodd" clip-rule="evenodd" d="M61.3516 28.3065C62.6884 29.0543 64.1021 27.7818 65.3706 27.3591C66.2782 27.0567 67.097 27.7563 67.8814 27.0609C69.8537 25.3123 68.9085 22.7764 66.4983 21.4282C64.088 20.08 61.6715 20.4887 60.131 22.2733C58.5904 24.0578 58.9414 26.9584 61.3516 28.3065Z" fill="#191847"/>
<path fill-rule="evenodd" clip-rule="evenodd" d="M62.3351 27.0113C62.1628 26.0988 62.2473 25.146 62.8114 24.3415C64.4367 22.0234 67.6002 24.5062 67.5458 26.1054C67.4915 27.7046 65.5549 30.7531 64.5486 30.4806C64.1473 30.3719 63.5313 29.7422 63.0388 28.8773L61.5659 32.3905L58.7604 30.8185L62.3351 27.0113Z" fill="#B28B67"/>
<path fill-rule="evenodd" clip-rule="evenodd" d="M64.4462 26.1169C64.3754 26.0078 64.2763 25.9128 64.1521 25.8434C63.7544 25.6209 63.2499 25.7438 63.0252 26.1178C62.9336 26.2705 62.9027 26.4414 62.9253 26.6053C62.5916 26.7813 62.3039 27.0013 62.0897 27.2731C61.4983 26.9423 60.6368 23.5755 64.0073 22.7466C67.3778 21.9176 68.7432 26.5559 67.7078 26.2028C67.1126 25.9998 65.7343 25.8896 64.4462 26.1169V26.1169Z" fill="#191847"/>
<path fill-rule="evenodd" clip-rule="evenodd" d="M58.0637 43.7493L63.1533 59.8084L65.6189 73.4656H67.552L64.9468 43.7493H58.0637Z" fill="#997659"/>
<path fill-rule="evenodd" clip-rule="evenodd" d="M56.243 43.7493C56.5887 52.5666 56.1819 57.1147 56.1045 57.9158C56.0271 58.7169 54.9676 63.9112 52.4595 73.7346L54.5194 73.0517C58.4833 64.0423 59.8341 59.3599 60.2887 58.1769C60.7433 56.9938 61.9508 52.1846 63.9112 43.7493H56.243Z" fill="#B28B67"/>
<path fill-rule="evenodd" clip-rule="evenodd" d="M52.4745 73.042C52.3232 73.4318 52.2476 73.7235 52.2476 73.9171C52.2476 74.1525 52.2882 74.496 52.3695 74.9476C52.6524 74.9476 55.1952 74.9476 59.9979 74.9476C60.1961 74.3151 60.0817 73.9736 59.6546 73.9231C59.2275 73.8727 58.8727 73.8272 58.5902 73.7865L55.0446 72.261C54.9763 72.2316 54.8964 72.2612 54.8659 72.3271C54.8654 72.3282 54.8649 72.3293 54.8644 72.3305L54.6365 72.864C54.2411 73.0421 53.9199 73.1311 53.6727 73.1311C53.4718 73.1311 53.1945 73.0528 52.8406 72.8962L52.8406 72.8962C52.7048 72.8362 52.5442 72.8937 52.4819 73.0248C52.4793 73.0304 52.4768 73.0362 52.4745 73.042Z" fill="#333333"/>
<path fill-rule="evenodd" clip-rule="evenodd" d="M65.1882 73.042C65.0368 73.4318 64.9612 73.7235 64.9612 73.9171C64.9612 74.1525 65.0018 74.496 65.0831 74.9476C65.366 74.9476 67.9088 74.9476 72.7115 74.9476C72.9097 74.3151 72.7953 73.9736 72.3682 73.9231C71.9411 73.8727 71.5863 73.8272 71.3038 73.7865L67.7582 72.261C67.69 72.2316 67.61 72.2612 67.5796 72.3271C67.5791 72.3282 67.5786 72.3293 67.5781 72.3305L67.3502 72.864C66.9548 73.0421 66.6335 73.1311 66.3863 73.1311C66.1854 73.1311 65.9081 73.0528 65.5542 72.8962L65.5542 72.8962C65.4184 72.8362 65.2578 72.8937 65.1956 73.0248C65.1929 73.0304 65.1904 73.0362 65.1882 73.042Z" fill="#333333"/>
<path fill-rule="evenodd" clip-rule="evenodd" d="M57.3872 43.7493L59.5512 51.9312H66.161L65.1755 43.7493H57.3872Z" fill="#69A1AC"/>
<path fill-rule="evenodd" clip-rule="evenodd" d="M56.17 43.7493C55.458 45.8092 55.3227 48.5365 55.7642 51.9312H62.5093L64.364 43.7493H56.17Z" fill="#89C5CC"/>
<ellipse cx="62.5243" cy="76.5837" rx="17.9154" ry="1.13756" fill="#333333" fill-opacity="0.22"/>
<path fill-rule="evenodd" clip-rule="evenodd" d="M69.9716 41.6768L73.803 45.2841C74.9178 45.7431 75.8312 46.2498 76.5432 46.8044C76.7034 46.9908 76.8777 47.348 76.1243 47.1882C75.3709 47.0284 74.571 46.8929 74.4294 47.1294C74.2878 47.3659 74.7051 47.7282 74.4434 48.0377C74.2689 48.244 73.6822 47.5878 72.6832 46.0689L68.6991 43.8019L69.9716 41.6768ZM52.9656 42.1855L55.792 42.1962C54.0468 47.6336 53.1047 50.5186 52.9656 50.8513C52.6526 51.5998 53.3149 52.7399 53.5981 53.3525C52.6757 53.7509 52.774 52.2756 51.6104 52.7981C50.5483 53.275 49.7404 54.1391 48.5133 53.4083C48.3624 53.3185 48.1971 52.9802 48.5965 52.7158C49.5917 52.0573 51.0257 50.9047 51.2195 50.5253C51.4837 50.0079 52.0658 47.228 52.9656 42.1855Z" fill="#B28B67"/>
<path fill-rule="evenodd" clip-rule="evenodd" d="M60.9979 30.7394L62.1674 30.5458C64.181 35.4004 67.6964 39.8115 72.7138 43.779L68.9224 48.2246C63.9056 42.5754 60.8133 36.747 60.9979 30.7394Z" fill="#191847"/>
<path fill-rule="evenodd" clip-rule="evenodd" d="M55.8994 44.9243H66.3138C63.901 39.2624 62.6946 34.4526 62.6946 30.495L59.5531 30.0432C57.0842 33.8755 56.387 38.5939 55.8994 44.9243Z" fill="#DDE3E9"/>
<path fill-rule="evenodd" clip-rule="evenodd" d="M59.4865 30.0454C59.4869 30.0446 59.4873 30.0439 59.4877 30.0432H59.6928C59.9382 30.0514 60.3119 30.0661 60.814 30.0873L61.5731 32.181C61.6534 34.7337 62.1223 39.8781 62.9799 47.6142H56.1531C56.171 48.1485 56.2005 48.6878 56.2416 49.232H51.1655C51.9248 40.9644 54.6976 34.5681 59.484 30.0432L59.4865 30.0454V30.0454Z" fill="#2F3676"/>
<path fill-rule="evenodd" clip-rule="evenodd" d="M56.604 40.7776C56.7983 44.1082 57.2847 46.4042 58.0633 47.6656H56.1548C56.0712 45.2693 56.2209 42.9733 56.604 40.7776V40.7776Z" fill="black" fill-opacity="0.1"/>
<path fill-rule="evenodd" clip-rule="evenodd" d="M57.6726 43.6189L61.0389 42.1085V43.6189H57.6726Z" fill="white" fill-opacity="0.2"/>
<g filter="url(#filter0_d)">
<path d="M80.2034 24.0229C84.5017 24.0229 87.9861 20.6599 87.9861 16.5114C87.9861 12.363 84.5017 9 80.2034 9C75.9051 9 72.4207 12.363 72.4207 16.5114C72.4207 20.6599 75.9051 24.0229 80.2034 24.0229Z" fill="#F2F2F2"/>
<path d="M80.2035 10.9844C80.4468 10.9844 80.644 10.794 80.644 10.5592C80.644 10.3244 80.4468 10.134 80.2035 10.134C79.9602 10.134 79.7629 10.3244 79.7629 10.5592C79.7629 10.794 79.9602 10.9844 80.2035 10.9844Z" fill="#333333"/>
<path d="M74.036 16.9365C74.2793 16.9365 74.4765 16.7462 74.4765 16.5114C74.4765 16.2765 74.2793 16.0862 74.036 16.0862C73.7927 16.0862 73.5955 16.2765 73.5955 16.5114C73.5955 16.7462 73.7927 16.9365 74.036 16.9365Z" fill="#333333"/>
<path d="M86.3712 16.9365C86.6145 16.9365 86.8117 16.7462 86.8117 16.5114C86.8117 16.2765 86.6145 16.0862 86.3712 16.0862C86.1279 16.0862 85.9307 16.2765 85.9307 16.5114C85.9307 16.7462 86.1279 16.9365 86.3712 16.9365Z" fill="#333333"/>
<path d="M80.2035 22.8889C80.4468 22.8889 80.644 22.6986 80.644 22.4638C80.644 22.2289 80.4468 22.0386 80.2035 22.0386C79.9602 22.0386 79.7629 22.2289 79.7629 22.4638C79.7629 22.6986 79.9602 22.8889 80.2035 22.8889Z" fill="#333333"/>
<path fill-rule="evenodd" clip-rule="evenodd" d="M80.2033 11.4092L80.497 16.3696H79.9097L80.2033 11.4092Z" fill="#333333"/>
<path fill-rule="evenodd" clip-rule="evenodd" d="M82.8023 19.0198L80.1026 16.815L80.518 16.4142L82.8023 19.0198Z" fill="#333333"/>
<path d="M80.2036 17.0781C80.528 17.0781 80.791 16.8243 80.791 16.5112C80.791 16.1981 80.528 15.9443 80.2036 15.9443C79.8792 15.9443 79.6162 16.1981 79.6162 16.5112C79.6162 16.8243 79.8792 17.0781 80.2036 17.0781Z" fill="#333333"/>
</g>
<path fill-rule="evenodd" clip-rule="evenodd" d="M17.4724 44.5696L22.8514 62.4591L25.3815 75.8908H27.9208L25.386 44.5696H17.4724Z" fill="#997659"/>
<path fill-rule="evenodd" clip-rule="evenodd" d="M15.055 44.5696C15.4303 53.8631 15.2823 58.932 15.1983 59.7764C15.1143 60.6207 14.6374 66.2757 11.3877 76.1743H14.0289C18.3326 66.6782 19.8349 61.0233 20.3285 59.7764C20.8221 58.5294 22.28 53.4605 24.4083 44.5696H15.055Z" fill="#B28B67"/>
<path fill-rule="evenodd" clip-rule="evenodd" d="M17.3569 44.5696C18.7561 50.7254 21.1761 60.5517 24.6168 74.0484H28.331C28.6053 60.1953 27.4383 51.0777 25.4174 44.5696H17.3569Z" fill="#69A1AC"/>
<path fill-rule="evenodd" clip-rule="evenodd" d="M15.0359 44.5696C15.4035 53.8631 14.4509 63.019 11.5 74.1931H15.4628C19.7744 64.8388 22.8646 55.7281 24.9766 44.5696H15.0359Z" fill="#89C5CC"/>
<path fill-rule="evenodd" clip-rule="evenodd" d="M11.0112 78.0167L11.157 75.7491C12.0102 75.99 13.0789 75.8955 14.3631 75.4657C15.7438 76.4097 17.4821 77.0542 19.5777 77.3994L19.5777 77.3994C19.7376 77.4258 19.8451 77.5722 19.8178 77.7265C19.8161 77.7365 19.8137 77.7464 19.8109 77.7561L19.6094 78.4419H14.3631H11.3027L11.0112 78.0167Z" fill="#191847"/>
<path fill-rule="evenodd" clip-rule="evenodd" d="M24.8145 78.0168L24.9602 75.7491C25.8134 75.99 26.8821 75.8955 28.1663 75.4657C29.5471 76.4097 31.2853 77.0543 33.381 77.3994L33.381 77.3994C33.5408 77.4258 33.6483 77.5722 33.621 77.7265C33.6193 77.7365 33.617 77.7464 33.6141 77.7562L33.4126 78.4419H28.1663H25.1059L24.8145 78.0168Z" fill="#191847"/>
<path fill-rule="evenodd" clip-rule="evenodd" d="M16.4684 24.1464C15.5608 23.6627 14.7938 22.9428 14.4828 21.9342C13.5869 19.0284 17.898 18.1536 19.2452 19.2909C20.5924 20.4281 21.9079 24.0863 20.9843 24.7181C20.616 24.97 19.6499 25.0404 18.5646 24.8497L20.5992 28.4485L17.3212 29.6549L16.4684 24.1464Z" fill="#B28B67"/>
<path fill-rule="evenodd" clip-rule="evenodd" d="M17.3549 21.2295C18.1404 22.8744 18.8029 23.5981 19.3422 23.4009C20.1512 23.1051 20.6441 22.3582 20.9991 22.2284C21.2578 22.1337 21.3221 22.4675 21.241 22.7621C21.1742 23.0051 20.5569 23.4415 20.6727 23.738C20.7884 24.0346 21.2434 23.6061 21.312 23.7819C21.4255 24.0728 21.7347 24.5848 21.2118 24.776C20.6826 24.9695 19.0926 25.3381 18.5367 24.6748C18.1779 24.2467 17.6736 23.2722 17.0238 21.7512C16.9903 21.7593 16.9569 21.7693 16.9237 21.7814C16.4703 21.9472 16.2413 22.4365 16.4121 22.8743C16.4989 23.0966 16.672 23.2629 16.8808 23.351C16.7918 23.6794 16.6845 24.0277 16.5494 24.396C15.4258 24.2002 14.1392 22.8946 14.4525 21.0739C14.4148 20.2519 14.823 19.6562 15.4143 19.2327C15.8662 18.8199 16.4134 18.5919 16.9341 18.5499C17.8853 18.2893 18.8139 18.2597 19.11 18.3356C19.4387 19.1779 19.3672 19.4896 17.9149 19.9954C17.6308 20.3061 17.4796 20.7173 17.3549 21.2295Z" fill="#191847"/>
<path fill-rule="evenodd" clip-rule="evenodd" d="M14.1052 44.6013H25.4122C22.851 37.0622 21.5426 31.8879 21.4871 29.0783C21.4843 28.9351 21.2102 28.6827 21.0889 28.7157C20.2021 28.9575 19.2532 28.8671 18.2421 28.4446C15.5616 32.6054 14.6346 37.7282 14.1052 44.6013Z" fill="#F2F2F2"/>
<path fill-rule="evenodd" clip-rule="evenodd" d="M35.46 26.8335L41.0259 25.2209C42.0642 24.4408 43.0436 23.8704 43.9641 23.5097C44.2318 23.4611 44.675 23.4894 44.1211 24.0957C43.5673 24.702 43.013 25.3638 43.1712 25.6181C43.3293 25.8723 43.9054 25.6807 44.0722 26.0834C44.1833 26.3519 43.2288 26.5442 41.2087 26.6603L36.881 29.1184L35.46 26.8335Z" fill="#B28B67"/>
<path fill-rule="evenodd" clip-rule="evenodd" d="M9.79217 48.8432L11.1281 54.3017C10.9473 55.5597 10.9252 56.6634 11.0618 57.6131C11.152 57.8612 11.3989 58.2175 11.6661 57.4514C11.9333 56.6854 12.25 55.8912 12.5572 55.8962C12.8643 55.9013 12.9804 56.4786 13.4252 56.4166C13.7217 56.3753 13.417 55.4814 12.5111 53.7348L12.5529 48.8885L9.79217 48.8432Z" fill="#B28B67"/>
<path d="M28.6304 21.0448L24.6436 21.8298L29.643 18.8414L29.7695 20.8205L33.7563 20.0355L28.757 23.0239L28.6304 21.0448Z" fill="#FF2F2F"/>
<path d="M28.4917 16.0884L26.4403 18.0769L28.1942 14.3884L29.0778 15.5203L31.1292 13.5319L29.3753 17.2204L28.4917 16.0884Z" fill="#FF2F2F"/>
<path d="M27.4218 25.488L25.0776 23.8282L29.1189 24.9495L28.0916 25.9622L30.4358 27.6219L26.3945 26.5006L27.4218 25.488Z" fill="#FF2F2F"/>
<path d="M8.64607 19.9761L12.6049 21.4668L8.67251 17.936L7.51498 19.5501L3.55615 18.0593L7.48855 21.5902L8.64607 19.9761Z" fill="#FF2F2F"/>
<path d="M11.0715 14.7912L12.2761 17.345L11.9643 13.2978L10.7273 14.0615L9.52271 11.5077L9.83449 15.5549L11.0715 14.7912Z" fill="#FF2F2F"/>
<ellipse cx="19.7535" cy="79.0244" rx="19.451" ry="1.48207" fill="#333333" fill-opacity="0.22"/>
<path d="M8.67964 23.961L11.4763 23.1939L7.28344 22.8854L7.8806 24.1802L5.08398 24.9473L9.2768 25.2558L8.67964 23.961Z" fill="#FF2F2F"/>
<path fill-rule="evenodd" clip-rule="evenodd" d="M17.0326 34.3621L17.6976 30.7116C24.9305 32.1095 33.9396 25.3756 36.59 25.999C37.5619 26.2275 37.0787 26.3911 37.5074 26.2107L38.5311 28.1868C38.1119 28.2838 38.116 28.5675 37.1732 29.4573C36.2305 30.3471 24.5131 38.0597 17.0326 34.3621Z" fill="#DB2721"/>
<path fill-rule="evenodd" clip-rule="evenodd" d="M21.7857 30.2108C22.8933 39.1598 28.6405 40.7274 27.9349 44.4679C27.3522 47.5567 18.2438 51.987 16.183 49.3037C15.3489 48.2175 14.8458 46.8377 14.5945 45.2988C14.3385 46.5398 14.1477 47.6043 14.022 48.4923C13.8053 50.0242 12.194 50.474 12.2739 51.0428L10.0277 50.7575C10.0661 49.9656 8.99204 49.723 9.02336 47.9609C9.16367 40.0657 11.6724 34.0278 16.5497 29.8471L16.4991 29.0847C16.4785 28.7731 16.7273 28.5035 17.0548 28.4826L21.0585 28.2274C21.3861 28.2065 21.6684 28.4422 21.689 28.7539L21.7857 30.2108Z" fill="#FF4133"/>
<defs>
<filter id="filter0_d" x="70.4207" y="8" width="19.5655" height="19.0229" filterUnits="userSpaceOnUse" color-interpolation-filters="sRGB">
<feFlood flood-opacity="0" result="BackgroundImageFix"/>
<feColorMatrix in="SourceAlpha" type="matrix" values="0 0 0 0 0 0 0 0 0 0 0 0 0 0 0 0 0 0 127 0"/>
<feOffset dy="1"/>
<feGaussianBlur stdDeviation="1"/>
<feColorMatrix type="matrix" values="0 0 0 0 0 0 0 0 0 0 0 0 0 0 0 0 0 0 0.5 0"/>
<feBlend mode="normal" in2="BackgroundImageFix" result="effect1_dropShadow"/>
<feBlend mode="normal" in="SourceGraphic" in2="effect1_dropShadow" result="shape"/>
</filter>
</defs>
</svg>
