<svg width="86" height="82" viewBox="0 0 86 82" fill="none" xmlns="http://www.w3.org/2000/svg">
<path fill-rule="evenodd" clip-rule="evenodd" d="M38.648 12.4385C46.0572 13.908 54.0634 7.84765 60.7311 11.3896C67.6012 15.039 69.1154 23.8157 72.8693 30.6171C77.7343 39.4316 86.9432 47.0199 85.9216 57.0303C84.8619 67.4132 77.7035 78.5945 67.6707 81.5551C57.5466 84.5427 49.1916 71.5252 38.648 70.9805C29.0938 70.4869 20.4961 82.4877 11.7302 78.6652C3.23406 74.9603 1.33123 63.3618 0.140966 54.189C-0.90676 46.1146 4.18508 39.0071 5.54238 30.9787C7.2535 20.8576 0.135346 6.17619 9.10772 1.15137C18.5328 -4.12699 28.0465 10.336 38.648 12.4385Z" fill="#94FDD1" fill-opacity="0.37"/>
<path fill-rule="evenodd" clip-rule="evenodd" d="M30.5081 20.126C31.0183 22.0017 31.6834 26.2179 31.0048 26.8793H26.7116C26.7112 26.8717 26.7107 26.8641 26.7103 26.8566C25.1191 26.6809 23.8815 25.3351 23.8815 23.7011V20.6C23.8815 18.8465 25.3065 17.425 27.0643 17.425H27.3604C28.9568 17.425 30.2787 18.5973 30.5081 20.126Z" fill="#191847"/>
<path fill-rule="evenodd" clip-rule="evenodd" d="M25.5488 23.109C24.8667 22.3103 24.405 21.3315 24.4821 20.2347C24.7044 17.0745 29.1146 17.7697 29.9724 19.3647C30.8303 20.9597 30.7284 25.0056 29.6196 25.2906C29.1775 25.4043 28.2356 25.1258 27.2769 24.5495L27.8787 28.7958H24.3257L25.5488 23.109Z" fill="#D4A181"/>
<path fill-rule="evenodd" clip-rule="evenodd" d="M26.5092 22.5751C26.6729 24.3291 26.6074 26.3322 26.1195 26.8077H21.8263C21.5871 22.662 23.8989 24.2674 23.8989 20.3641C24.043 20.2237 24.1792 20.0846 24.314 19.9647L24.3092 19.8499C25.0526 18.3318 25.9957 17.5728 27.1386 17.5728C28.8529 17.5728 29.394 18.3685 29.8548 19.044C29.5102 20.2232 28.1733 20.398 26.9853 21.133C26.8453 21.0195 26.6667 20.9515 26.4722 20.9515C26.0225 20.9515 25.658 21.3151 25.658 21.7637C25.658 22.2123 26.0225 22.5759 26.4722 22.5759C26.4846 22.5759 26.497 22.5756 26.5092 22.5751Z" fill="#191847"/>
<path fill-rule="evenodd" clip-rule="evenodd" d="M18.6123 55.5373C22.1637 56.5282 25.2277 57.0236 27.8044 57.0236C30.3811 57.0236 32.7744 56.2606 34.9844 54.7348C31.509 53.7177 28.6469 53.2092 26.3981 53.2092C24.1492 53.2092 21.5539 53.9853 18.6123 55.5373Z" fill="#1F28CF"/>
<path fill-rule="evenodd" clip-rule="evenodd" d="M27.4084 58.7653C27.3801 58.7099 27.357 58.6502 27.3398 58.586C26.9833 57.2572 20.8389 42.7767 20.3014 40.1665L28.2285 40.6704C28.6372 42.655 30.2555 55.0489 30.4373 57.5127C31.2571 61.433 32.6545 74.0493 32.8794 74.9315C33.116 75.8595 31.3973 76.7014 31.0268 75.5554C30.4373 73.732 29.0764 68.7039 28.5225 65.6513C28.0031 62.7896 27.5956 60.2188 27.4084 58.7653Z" fill="#BA8B72"/>
<path fill-rule="evenodd" clip-rule="evenodd" d="M30.36 75.392C30.235 75.8598 30.1794 76.2075 30.1931 76.4352C30.2097 76.7121 30.275 77.1138 30.3889 77.6402C30.6743 77.6231 33.2386 77.4696 38.0819 77.1797C38.2371 76.4236 38.0975 76.0288 37.6632 75.9953C37.229 75.9617 36.8679 75.9295 36.5802 75.8988L32.8966 74.318C32.8257 74.2876 32.7471 74.3272 32.7211 74.4065C32.7207 74.4079 32.7202 74.4093 32.7198 74.4106L32.5278 75.0521C32.1416 75.2855 31.8239 75.4096 31.5746 75.4245C31.3721 75.4366 31.0868 75.3613 30.7189 75.1984L30.7189 75.1984C30.5777 75.1359 30.4198 75.2133 30.3663 75.3713C30.364 75.3781 30.3619 75.385 30.36 75.392Z" fill="#2CDD93"/>
<path fill-rule="evenodd" clip-rule="evenodd" d="M21.525 59.4786C21.513 59.4181 21.5076 59.3555 21.5096 59.2908C21.5498 57.9526 19.689 42.5713 19.9336 40L27.8465 43.2583C27.6606 45.2133 25.5489 57.0929 24.9867 59.4051C24.632 63.2713 22.2281 75.2759 22.1894 76.1602C22.1488 77.0905 20.1447 77.2518 20.1152 76.0754C20.0684 74.2037 20.2084 69.1355 20.5704 66.1548C20.9098 63.3604 21.2747 60.8709 21.525 59.4786Z" fill="#BA8B72"/>
<path fill-rule="evenodd" clip-rule="evenodd" d="M19.3243 75.1627C19.1727 75.6089 19.1004 75.9414 19.1073 76.1603C19.1158 76.4264 19.1725 76.8134 19.2776 77.3211C19.5871 77.311 22.3689 77.2203 27.6229 77.049C27.8171 76.3267 27.6797 75.9447 27.2106 75.9029C26.7416 75.8611 26.3518 75.8223 26.0413 75.7864L22.1079 74.1879C22.0322 74.1572 21.9457 74.1935 21.9148 74.269C21.9143 74.2703 21.9138 74.2716 21.9133 74.2729L21.6831 74.8844C21.2569 75.0998 20.9086 75.2119 20.6382 75.2207C20.4185 75.2279 20.1123 75.1493 19.7195 74.9849L19.7195 74.9849C19.5688 74.9218 19.3952 74.9926 19.3318 75.143C19.3291 75.1495 19.3266 75.156 19.3243 75.1627Z" fill="#2CDD93"/>
<path fill-rule="evenodd" clip-rule="evenodd" d="M21.5127 41.0526C24.8506 40.1 28.0087 40.1 30.9873 41.0526C32.0236 45.7688 34.5416 47.6407 34.9844 54.8714C29.951 57.3662 23.7333 53.0922 18.5519 55.5251C17.0715 52.1221 19.1441 43.9269 21.5127 41.0526Z" fill="#2B44FF"/>
<path fill-rule="evenodd" clip-rule="evenodd" d="M35.8727 35.1914L41.7178 34.3961C42.887 33.7474 43.9627 33.3082 44.9447 33.0786C45.2211 33.0705 45.6607 33.1707 45.0058 33.7154C44.3509 34.26 43.6863 34.8625 43.803 35.1531C43.9197 35.4438 44.5288 35.3356 44.6297 35.7827C44.697 36.0807 43.7085 36.1292 41.6642 35.928L36.9214 37.8036L35.8727 35.1914ZM17.5113 36.541L20.753 36.5531C17.1984 44.5323 15.3449 48.7101 15.1927 49.0865C14.8501 49.9333 15.575 51.223 15.885 51.916C14.8754 52.3667 14.9829 50.6977 13.7093 51.2888C12.5468 51.8283 11.6625 52.8058 10.3194 51.9791C10.1542 51.8775 9.97327 51.4948 10.4105 51.1958C11.4997 50.4508 13.0694 49.1469 13.2815 48.7177C13.5707 48.1324 14.9806 44.0735 17.5113 36.541Z" fill="#D4A181"/>
<path fill-rule="evenodd" clip-rule="evenodd" d="M26.3907 26.2851L28.9288 26.4538C29.5539 32.095 32.9588 35.6582 40.582 34.4519L41.5948 41.7165C34.4697 42.635 28.221 39.7896 26.9403 32.0854C26.6088 30.091 26.3471 28.0155 26.3907 26.2851Z" fill="#AFB9C5"/>
<path fill-rule="evenodd" clip-rule="evenodd" d="M25.1385 25.5492L28.9841 26.4278C28.9841 33.0256 31.0911 37.2351 32.1718 42.086H21.7858C21.6395 43.7622 21.5497 45.485 21.5028 47.2545H13.7262C15.4884 37.9016 19.2079 30.6657 24.8846 25.5469H25.1365L25.1385 25.5492Z" fill="#C5CFD6"/>
<path fill-rule="evenodd" clip-rule="evenodd" d="M23.4244 32.6733C23.1567 36.7847 23.3142 39.9222 23.8966 42.086H21.7858C22.0756 38.7654 22.587 35.6279 23.4244 32.6733V32.6733Z" fill="black" fill-opacity="0.1"/>
<ellipse cx="57.8098" cy="77.1579" rx="19.6153" ry="1.84588" fill="#333333" fill-opacity="0.22"/>
<ellipse cx="27" cy="78" rx="13" ry="1" fill="#333333" fill-opacity="0.22"/>
<path fill-rule="evenodd" clip-rule="evenodd" d="M52.6245 17.2826C53.3359 16.4496 53.8174 15.4288 53.737 14.2849C53.5052 10.9892 48.9058 11.7142 48.0112 13.3776C47.1165 15.041 47.2228 19.2605 48.3791 19.5578C48.8402 19.6763 49.8225 19.3859 50.8223 18.7848L50.1948 23.2133H53.9001L52.6245 17.2826Z" fill="#57331F"/>
<path fill-rule="evenodd" clip-rule="evenodd" d="M50.637 14.6489C50.4952 16.6198 50.12 17.6052 49.5114 17.6052C48.5985 17.6052 47.824 17.0271 47.4235 17.0271C47.1315 17.0271 47.1967 17.3916 47.3902 17.6618C47.5499 17.8848 48.3275 18.0997 48.3275 18.4453C48.3275 18.791 47.7131 18.5236 47.7131 18.7286C47.7131 19.0677 47.6051 19.7053 48.1952 19.7053C48.7923 19.7053 50.5043 19.4882 50.7977 18.6042C50.987 18.0337 51.1095 16.8515 51.165 15.0576C51.2012 15.0533 51.2381 15.0511 51.2754 15.0511C51.787 15.0511 52.2018 15.4648 52.2018 15.9751C52.2018 16.2342 52.0949 16.4683 51.9227 16.6361C52.1371 16.9379 52.3773 17.2532 52.6525 17.5785C53.6867 16.9596 54.454 15.1479 53.443 13.4076C53.1636 12.555 52.5309 12.0996 51.7838 11.8881C51.1786 11.6356 50.5503 11.6071 50.0199 11.7585C48.9803 11.8475 48.0519 12.1637 47.7888 12.3515C47.7888 13.3333 47.9795 13.6246 49.6085 13.5989C50.0088 13.8098 50.3165 14.1729 50.637 14.6489Z" fill="#191847"/>
<path fill-rule="evenodd" clip-rule="evenodd" d="M54.3783 38.271L49.579 58.2769L46.8322 75.004L44.8453 75.2861L47.5499 39.2405L54.3783 38.271Z" fill="#3D2216"/>
<path fill-rule="evenodd" clip-rule="evenodd" d="M55.8889 38.0565C56.9185 44.701 59.3623 53.4966 59.6076 53.8851C59.7712 54.1441 64.5569 57.0532 73.9647 62.6126L72.8047 64.2677C62.0153 59.8879 56.335 57.3444 55.7637 56.637C54.9068 55.576 51.1332 45.2283 48.417 39.1174L55.8889 38.0565Z" fill="#57331F"/>
<path fill-rule="evenodd" clip-rule="evenodd" d="M74.0784 62.0989C74.5611 62.1956 74.8996 62.3044 75.094 62.425C75.3304 62.5718 75.6508 62.8252 76.0552 63.1853C75.8845 63.4588 74.3507 65.9169 71.4538 70.5597C70.6991 70.357 70.4252 70.0335 70.6322 69.5892C70.8392 69.1449 71.0075 68.7735 71.1371 68.475L71.7439 64.0964C71.7556 64.0122 71.8335 63.9533 71.918 63.965C71.9195 63.9652 71.9209 63.9654 71.9223 63.9656L72.5956 64.078C73.0129 63.8067 73.2961 63.5516 73.4452 63.3127C73.5663 63.1185 73.655 62.8016 73.7113 62.3619L73.7113 62.3619C73.7328 62.1931 73.8875 62.0738 74.0566 62.0953C74.0639 62.0962 74.0712 62.0974 74.0784 62.0989Z" fill="#333333"/>
<path fill-rule="evenodd" clip-rule="evenodd" d="M47.5402 74.1491C47.7762 74.5802 47.9103 74.9088 47.9426 75.1348C47.9818 75.4098 47.9932 75.8175 47.9766 76.358C47.6568 76.4034 44.7832 76.8115 39.3556 77.5821C39.0261 76.8751 39.0985 76.4579 39.5728 76.3305C40.0471 76.203 40.4404 76.0929 40.7529 76.0001L44.5056 73.6493C44.5778 73.6041 44.6731 73.6258 44.7185 73.6978C44.7193 73.6991 44.72 73.7003 44.7208 73.7016L45.0673 74.2882C45.5438 74.4327 45.9217 74.4852 46.2011 74.4455C46.428 74.4133 46.7284 74.2773 47.1023 74.0377L47.1023 74.0377C47.2457 73.9457 47.4368 73.9871 47.529 74.1302C47.533 74.1364 47.5367 74.1427 47.5402 74.1491Z" fill="#333333"/>
<path fill-rule="evenodd" clip-rule="evenodd" d="M54.0866 72.2913L44.4939 72.6099L46.8886 39.3344L55.3497 38.1331L54.0866 72.2913Z" fill="#69A1AC"/>
<path fill-rule="evenodd" clip-rule="evenodd" d="M71.6743 60.5332L66.5218 68.7293C58.9805 62.5455 54.5133 58.4461 53.1204 56.4312C51.7275 54.4164 49.9152 48.6798 47.6835 39.2214L57.2092 37.8689C58.8842 46.2309 59.8319 50.5963 60.0523 50.9652C60.2727 51.3341 64.1467 54.5234 71.6743 60.5332Z" fill="#89C5CC"/>
<path fill-rule="evenodd" clip-rule="evenodd" d="M63.0405 32.783L59.6598 32.7956C62.2347 41.1171 63.6015 45.4741 63.7603 45.8666C64.1175 46.7498 63.3616 48.0948 63.0383 48.8176C64.0912 49.2876 63.979 47.547 65.3073 48.1634C66.5197 48.7261 67.4419 49.7455 68.8427 48.8834C69.0149 48.7774 69.2036 48.3783 68.7476 48.0664C67.6117 47.2894 65.9747 45.9296 65.7535 45.482C65.4518 44.8716 64.5475 40.6386 63.0405 32.783Z" fill="#57331F"/>
<path fill-rule="evenodd" clip-rule="evenodd" d="M54.8674 22.2645L53.7857 21.4513C48.5099 27.0813 36.5835 26.6353 34.7204 28.7962C34.0372 29.5886 34.4531 30.3806 33.9741 30.4827L34.9344 32.4021C35.3527 32.2324 35.6227 33.0751 36.9877 33.2847C38.3527 33.4943 50.8338 30.0692 54.8674 22.2645Z" fill="#721451"/>
<path d="M32.1174 31.021L37.9598 29.2372L38.0993 32.1296L32.8283 32.4282C30.9915 33.4997 30.0406 33.8818 29.9754 33.5744C29.8776 33.1133 30.4973 32.951 30.4818 32.6292C30.4663 32.3073 29.5813 32.032 28.7303 31.8065C27.8793 31.5811 28.2497 31.2975 28.5132 31.1855C29.5362 30.9755 30.7376 30.9206 32.1174 31.021Z" fill="#57331F"/>
<path fill-rule="evenodd" clip-rule="evenodd" d="M49.4566 23.3574C49.6105 33.1751 43.9209 35.6795 45.1882 39.618C46.2347 42.8703 56.2518 46.3665 57.9852 43.1785C58.6869 41.888 59.0052 40.3273 59.0413 38.6304C59.4844 39.934 59.8347 41.0563 60.0925 41.9972C60.5371 43.6204 62.2609 43.8785 62.2609 44.5038L64.5319 43.8785C64.3779 43.0289 65.4485 42.6153 65.1614 40.7174C63.8752 32.2136 60.4194 26.0495 54.7941 22.225L54.7359 21.3949C54.7121 21.0555 54.417 20.7996 54.0767 20.8233L49.9183 21.1134C49.5781 21.1371 49.3216 21.4315 49.3454 21.7709L49.4566 23.3574Z" fill="#B81B82"/>
</svg>
