<svg width="86" height="82" viewBox="0 0 86 82" fill="none" xmlns="http://www.w3.org/2000/svg">
<path fill-rule="evenodd" clip-rule="evenodd" d="M45.9642 11.1391C56.4487 10.6602 67.4146 -1.85734 75.4328 3.83064C83.7301 9.71651 71.1002 21.4953 73.1775 30.4436C74.8253 37.5417 87.4733 41.6351 85.8578 48.7385C84.2784 55.6831 72.1659 56.2331 66.1805 61.2094C58.4395 67.6454 56.725 83.3516 45.9642 81.9065C34.3534 80.3473 39.0592 62.5942 29.9599 56.3453C21.8321 50.7635 1.28351 59.1306 0.0553961 50.3784C-1.30271 40.6997 22.7253 41.77 26.6266 32.5906C30.3191 23.9026 12.1064 13.7768 18.738 6.42023C24.4685 0.0632753 36.4788 11.5724 45.9642 11.1391Z" fill="#94FDD1" fill-opacity="0.37"/>
<g filter="url(#filter0_d)">
<rect x="21.5002" width="31.0952" height="16.927" rx="4" fill="#FFD7D7"/>
<path d="M20.7936 20.5933L25.0338 16.4746L30.6875 16.4746L20.7936 20.5933Z" fill="#FFD7D7"/>
</g>
<path d="M40.806 6.87672L40.3656 11.6913L43.2533 6.10214L40.9318 5.50112L41.3722 0.686523L38.4844 6.2757L40.806 6.87672Z" fill="black"/>
<path d="M32.7495 9.32055C32.8168 9.56475 33.1139 9.69925 33.4133 9.62136C33.4415 9.61402 33.4688 9.6051 33.4951 9.59456C33.48 9.67243 33.4638 9.76854 33.4664 9.81394C33.4765 10.0056 33.7416 10.0998 33.9674 10.0411C33.9674 10.0411 34.0789 10.0206 34.0971 9.99556C34.1626 9.90468 33.9927 9.61704 33.9927 9.61704C33.9783 9.56479 34.0186 9.50903 34.0827 9.49234C34.1466 9.47572 34.21 9.50451 34.2244 9.55677C34.2244 9.55677 34.2285 9.89926 34.3318 9.94624C34.4161 9.98436 34.6676 9.91894 34.7209 9.845C34.7864 9.75412 34.6135 9.45553 34.6135 9.45553C34.5991 9.40327 34.6395 9.34748 34.7033 9.33089C34.767 9.3143 34.8307 9.343 34.8451 9.39525C34.8451 9.39525 34.8491 9.73781 34.9526 9.78472C35.0367 9.82291 35.2882 9.75745 35.3414 9.68355C35.4069 9.59266 35.234 9.29407 35.234 9.29407C35.2196 9.24182 35.2599 9.18606 35.3238 9.16944C35.3879 9.15276 35.4513 9.18154 35.4657 9.2338C35.4657 9.2338 35.4665 9.56529 35.5701 9.61231C35.5988 9.62527 35.7061 9.58867 35.7061 9.58867C35.932 9.52988 36.1129 9.31966 36.0232 9.14868C36.002 9.10812 35.9386 9.03272 35.8852 8.97265C35.9134 8.96906 35.9418 8.96346 35.9701 8.95611C36.2694 8.87822 36.4576 8.61745 36.3902 8.37326C36.351 8.23104 36.2339 8.12612 36.0835 8.07865C36.1631 7.83218 36.1697 7.57435 36.1028 7.33104C35.8764 6.51163 34.8784 6.05898 33.8729 6.32059C32.8675 6.58219 32.236 7.45883 32.462 8.27834C32.5311 8.52875 32.6722 8.7446 32.8635 8.91649C32.7578 9.0307 32.7103 9.17844 32.7495 9.32055ZM35.6168 7.58631C36.0614 7.49356 35.6724 8.14385 35.5015 8.3194C35.3307 8.49492 34.7766 8.39521 34.7641 8.2395C34.746 8.01048 35.3429 7.64347 35.6168 7.58631ZM34.3967 8.86034C34.4337 8.7439 34.4413 8.64505 34.5206 8.62443C34.5998 8.60381 34.6571 8.68566 34.7493 8.76859C34.8286 8.83986 35.0046 8.86193 34.9305 8.96455C34.8497 9.0768 34.468 9.17612 34.3402 9.11813C34.2207 9.06398 34.3645 8.96074 34.3967 8.86034ZM33.0372 8.25752C33.3035 8.17412 34.0097 8.20207 34.1117 8.40912C34.1811 8.55005 33.7524 8.90547 33.5142 8.83637C33.276 8.76748 32.6043 8.39318 33.0372 8.25752Z" fill="black"/>
<path d="M38.2671 10.8968C37.9941 10.8349 37.8607 10.9675 37.8607 10.9675C37.7226 11.1044 37.4526 11.1807 37.2597 11.137L35.772 10.8007L36.8873 9.78705C37.0318 9.65597 37.3052 9.59079 37.4951 9.64221C37.4951 9.64221 37.6789 9.692 37.8835 9.50611C38.0993 9.30981 38.1061 8.99785 37.8979 8.80902L37.8291 8.74688C37.7346 8.7135 37.6269 8.61575 37.5898 8.52969L37.5211 8.46753C37.3131 8.27889 36.9694 8.2853 36.7532 8.48169C36.5485 8.66749 36.604 8.83428 36.604 8.83428C36.6609 9.00678 36.5896 9.25501 36.4451 9.38606L35.0646 10.6407L33.223 10.2244C33.0306 10.181 32.8409 10.0007 32.8016 9.82365C32.8016 9.82365 32.7637 9.65238 32.4909 9.59071C32.2026 9.52559 31.9016 9.68705 31.8185 9.9513L31.7911 10.0385C31.8032 10.131 31.7603 10.2679 31.6954 10.3428L31.6681 10.43C31.585 10.6946 31.7513 10.9615 32.0394 11.0267C32.3122 11.0885 32.4458 10.956 32.4458 10.956C32.5836 10.8192 32.854 10.743 33.0465 10.7864L34.5343 11.1228L33.4188 12.1365C33.2746 12.2679 33.0011 12.3329 32.8113 12.2814C32.8113 12.2814 32.6274 12.2314 32.423 12.4175C32.207 12.6137 32.2004 12.926 32.4084 13.1145L32.4769 13.1767C32.5716 13.2101 32.6793 13.3079 32.7164 13.394L32.7851 13.4562C32.9929 13.6447 33.3369 13.6385 33.553 13.442C33.7577 13.256 33.7022 13.0893 33.7022 13.0893C33.6452 12.9172 33.7167 12.6686 33.861 12.5376L35.2417 11.2828L37.0832 11.6991C37.2756 11.7425 37.4653 11.9231 37.5047 12.0997C37.5047 12.0997 37.5426 12.271 37.8154 12.3328C38.1038 12.398 38.4046 12.2364 38.4877 11.9722L38.5153 11.885C38.503 11.7925 38.546 11.6557 38.6107 11.5806L38.6383 11.4934C38.7214 11.2291 38.5549 10.9619 38.2671 10.8968Z" fill="black"/>
<path d="M45.8486 7.55103C46.2305 7.55103 46.5764 7.60614 46.8864 7.71637C47.1964 7.8266 47.4591 7.97725 47.6746 8.16832C47.8939 8.35939 48.0621 8.58353 48.1793 8.84073C48.2965 9.09427 48.3551 9.36433 48.3551 9.65093V13.002C48.3551 13.2886 48.2965 13.5605 48.1793 13.8177C48.0621 14.0712 47.8939 14.2935 47.6746 14.4846C47.4591 14.6756 47.1964 14.8263 46.8864 14.9365C46.5764 15.0468 46.2305 15.1019 45.8486 15.1019H45.2079C44.826 15.1019 44.4801 15.0468 44.1701 14.9365C43.8601 14.8263 43.5955 14.6756 43.3762 14.4846C43.1607 14.2935 42.9944 14.0712 42.8772 13.8177C42.76 13.5605 42.7014 13.2886 42.7014 13.002V9.65093C42.7014 9.36433 42.76 9.09427 42.8772 8.84073C42.9944 8.58353 43.1607 8.35939 43.3762 8.16832C43.5955 7.97725 43.8601 7.8266 44.1701 7.71637C44.4801 7.60614 44.826 7.55103 45.2079 7.55103H45.8486ZM46.5461 9.28717L46.6142 8.57618H46.0244L45.9394 9.28717H45.429L45.5141 8.57618H44.9073L44.8279 9.28717H44.4537L44.3969 9.86588H44.7712L44.6408 11.0839H44.2665L44.1985 11.6682H44.5727L44.499 12.3792H45.0944L45.1738 11.6682H45.6842L45.6161 12.3792H46.2059L46.291 11.6682H46.6482L46.7106 11.0839H46.3477L46.4781 9.86588H46.8467L46.9034 9.28717H46.5461ZM45.7579 11.0839H45.2305L45.3723 9.86588H45.8827L45.7579 11.0839Z" fill="black"/>
<path d="M28.8461 2.05957C29.125 2.05957 29.3775 2.09979 29.6039 2.18023C29.8303 2.26068 30.0221 2.37061 30.1795 2.51005C30.3396 2.64948 30.4625 2.81305 30.548 3.00075C30.6336 3.18576 30.6764 3.38285 30.6764 3.592V6.03744C30.6764 6.24659 30.6336 6.44502 30.548 6.63272C30.4625 6.81773 30.3396 6.97996 30.1795 7.11939C30.0221 7.25883 29.8303 7.36876 29.6039 7.44921C29.3775 7.52965 29.125 7.56987 28.8461 7.56987H27.5707C27.2919 7.56987 27.0393 7.52965 26.813 7.44921C26.5866 7.36876 26.3934 7.25883 26.2332 7.11939C26.0759 6.97996 25.9544 6.81773 25.8688 6.63272C25.7833 6.44502 25.7405 6.24659 25.7405 6.03744V3.592C25.7405 3.38285 25.7833 3.18576 25.8688 3.00075C25.9544 2.81305 26.0759 2.64948 26.2332 2.51005C26.3934 2.37061 26.5866 2.26068 26.813 2.18023C27.0393 2.09979 27.2919 2.05957 27.5707 2.05957H28.8461ZM27.7861 4.49697L28.2002 4.44871H28.3782L28.8089 4.48893V4.91929L28.3616 4.96756H28.2002L27.8192 4.91929L27.7488 4.69406L27.7861 4.49697ZM29.2022 3.88963L29.1319 3.51558L28.8461 3.23805L28.3948 3.18576H28.0552L27.5625 3.28632L27.6411 3.57591L28.0635 3.49144H28.3865L28.7426 3.55178L28.8089 3.78104V4.15911L28.3948 4.11085H28.167L27.7157 4.16716L27.43 4.44871L27.3554 4.6297V4.77048L27.43 4.95952L27.7157 5.23704L28.167 5.28933H28.3948L28.8793 5.17269L29.0822 5.5749H29.8689L30.0387 5.29737L30.1008 4.91929C30.0981 4.89248 30.0953 4.85896 30.0925 4.81874C30.0925 4.77852 30.0925 4.72355 30.0925 4.65383C30.0925 4.58412 30.0925 4.49697 30.0925 4.3924C30.0925 4.28514 30.0925 4.15241 30.0925 3.99421C30.0925 3.88963 30.087 3.77701 30.076 3.65635C30.0649 3.53569 30.0415 3.41502 30.0056 3.29436C29.9697 3.1737 29.9172 3.0584 29.8482 2.94846C29.7792 2.83584 29.6853 2.73663 29.5666 2.65082C29.4507 2.56233 29.3058 2.49262 29.1319 2.44167C28.9607 2.39072 28.755 2.36525 28.5149 2.36525C28.1422 2.36525 27.8344 2.39207 27.5914 2.44569C27.3485 2.49932 27.1525 2.57172 27.0034 2.66289C26.8571 2.75406 26.7481 2.85997 26.6763 2.98063C26.6073 3.09862 26.5604 3.2233 26.5355 3.35469C26.5134 3.46999 26.5024 3.58663 26.5024 3.70462C26.5024 3.73143 26.5024 3.75154 26.5024 3.76495C26.5079 3.80517 26.5107 3.9379 26.5107 4.16314C26.5107 4.38301 26.5134 4.5868 26.519 4.7745C26.5272 4.95952 26.5466 5.12844 26.5769 5.28128C26.6073 5.43144 26.6529 5.56417 26.7136 5.67947C26.7743 5.79209 26.8585 5.88728 26.9662 5.96504C27.0766 6.04281 27.2132 6.1018 27.3761 6.14202L28.4693 6.20235L28.4983 5.84036C28.352 5.8484 28.2195 5.85243 28.1008 5.85243C27.8054 5.85243 27.5749 5.82695 27.4092 5.77601C27.2436 5.72506 27.1208 5.63791 27.0407 5.51457C26.9607 5.38854 26.911 5.21961 26.8916 5.00778C26.8751 4.79595 26.8668 4.52915 26.8668 4.20738V3.76495C26.8668 3.63624 26.8806 3.51021 26.9082 3.38687C26.9386 3.26352 27.009 3.15359 27.1194 3.05705C27.2298 2.95784 27.3941 2.87874 27.6122 2.81975C27.833 2.75808 28.1339 2.72724 28.5149 2.72724C28.7826 2.72724 28.9966 2.76344 29.1567 2.83584C29.3168 2.90556 29.4397 2.99806 29.5252 3.11336C29.6108 3.22598 29.6674 3.35335 29.695 3.49547C29.7226 3.6349 29.7364 3.77433 29.7364 3.91377V5.05605L29.666 5.29737H29.2685L29.2022 5.05605V3.88963Z" fill="black"/>
<path fill-rule="evenodd" clip-rule="evenodd" d="M16.4399 40.686L22.6539 61.4849L25.5767 77.101H28.5103L25.5819 40.686H16.4399Z" fill="#E8C17E"/>
<path fill-rule="evenodd" clip-rule="evenodd" d="M13.6473 40.686C14.0809 51.4909 13.9099 57.3842 13.8129 58.3659C13.7158 59.3476 13.1649 65.9222 9.41077 77.4305H12.4619C17.4337 66.3902 19.1693 59.8156 19.7395 58.3659C20.3097 56.9162 21.9938 51.0229 24.4526 40.686H13.6473Z" fill="#E8C17E"/>
<path fill-rule="evenodd" clip-rule="evenodd" d="M16.3065 40.686C17.9229 47.843 20.7185 59.2673 24.6933 74.959H28.984C29.3009 58.853 27.9528 48.2525 25.6182 40.686H16.3065Z" fill="#69A1AC"/>
<path fill-rule="evenodd" clip-rule="evenodd" d="M13.6256 40.686C14.0502 51.4909 12.9497 62.1358 9.54077 75.1272H14.1187C19.0996 64.2516 22.6695 53.6593 25.1094 40.686H13.6256Z" fill="#89C5CC"/>
<path fill-rule="evenodd" clip-rule="evenodd" d="M8.97583 79.5726L9.14418 76.9362C10.1299 77.2163 11.3645 77.1064 12.848 76.6067C14.4431 77.7042 16.4511 78.4536 18.8721 78.8549L18.8721 78.8549C19.0568 78.8855 19.181 79.0558 19.1495 79.2352C19.1474 79.2468 19.1447 79.2583 19.1414 79.2696L18.9087 80.0669H12.848H9.31254L8.97583 79.5726Z" fill="#191847"/>
<path fill-rule="evenodd" clip-rule="evenodd" d="M24.9219 79.5726L25.0902 76.9362C26.0759 77.2163 27.3105 77.1064 28.794 76.6067C30.3891 77.7042 32.3972 78.4536 34.8181 78.8549L34.8181 78.8549C35.0028 78.8855 35.127 79.0558 35.0955 79.2352C35.0935 79.2468 35.0908 79.2583 35.0875 79.2696L34.8547 80.0669H28.794H25.2586L24.9219 79.5726Z" fill="#191847"/>
<path fill-rule="evenodd" clip-rule="evenodd" d="M15.2642 16.9211C14.2135 16.3472 13.3284 15.4999 12.9759 14.3219C11.9601 10.9274 16.9782 9.9587 18.534 11.2987C20.0897 12.6387 21.5866 16.9142 20.5076 17.6392C20.0773 17.9283 18.9539 17.9991 17.6943 17.7644L20.0274 21.9791L16.207 23.3459L15.2642 16.9211Z" fill="#E8C17E"/>
<path fill-rule="evenodd" clip-rule="evenodd" d="M12.55 40.7232H25.6122C22.6534 31.9581 21.142 25.9423 21.0778 22.6758C21.0746 22.5092 20.7579 22.2158 20.6178 22.2542C19.5934 22.5352 18.4971 22.4302 17.3291 21.939C14.2324 26.7765 13.1616 32.7324 12.55 40.7232Z" fill="#F2F2F2"/>
<path fill-rule="evenodd" clip-rule="evenodd" d="M34.4476 37.6263L39.2368 42.1959C40.633 42.78 41.7764 43.4235 42.6669 44.1265C42.8669 44.3625 43.084 44.8141 42.1398 44.6092C41.1955 44.4042 40.1929 44.2299 40.0142 44.5278C39.8356 44.8257 40.3572 45.2849 40.0276 45.6744C39.8079 45.9341 39.075 45.1032 37.8288 43.1819L32.8419 40.3034L34.4476 37.6263Z" fill="#E8C17E"/>
<path fill-rule="evenodd" clip-rule="evenodd" d="M7.56753 45.6548L9.11089 52.001C8.90198 53.4635 8.87643 54.7468 9.03423 55.8509C9.13845 56.1393 9.42372 56.5536 9.73235 55.6629C10.041 54.7723 10.4069 53.8489 10.7617 53.8548C11.1166 53.8607 11.2507 54.5319 11.7645 54.4599C12.107 54.4118 11.755 53.3725 10.7085 51.3419L10.7568 45.7075L7.56753 45.6548Z" fill="#E8C17E"/>
<ellipse cx="21.0155" cy="79.9466" rx="16.0439" ry="1.84892" fill="#333333" fill-opacity="0.22"/>
<path fill-rule="evenodd" clip-rule="evenodd" d="M16.2948 23.7237L20.4939 22.3328C23.0532 30.2277 35.1304 35.3145 35.9517 38.2697C36.2529 39.3534 35.8125 38.9699 36.2402 39.2904L34.7373 41.4039C34.4022 41.046 34.1069 41.2089 32.649 40.7803C31.191 40.3517 16.5798 33.1503 16.2948 23.7237Z" fill="black"/>
<path fill-rule="evenodd" clip-rule="evenodd" d="M21.4227 23.992C22.7023 34.3963 29.3416 36.2189 28.5264 40.5677C27.8533 44.1588 17.331 49.3096 14.9504 46.1899C13.9867 44.9271 13.4055 43.3229 13.1152 41.5337C12.8195 42.9766 12.599 44.2142 12.4539 45.2466C12.2035 47.0276 10.3421 47.5506 10.4344 48.2119L7.83958 47.8802C7.88393 46.9595 6.64311 46.6774 6.67928 44.6288C6.84138 35.4496 9.73959 28.4298 15.3739 23.5692L15.3155 22.6828C15.2916 22.3205 15.579 22.0071 15.9575 21.9828L20.5826 21.686C20.961 21.6618 21.2872 21.9358 21.3111 22.2982L21.4227 23.992Z" fill="#1D1D1D"/>
<path fill-rule="evenodd" clip-rule="evenodd" d="M16.3283 11.4193C15.8178 11.7564 15.4895 12.325 15.1004 13.0666C14.9832 13.0365 14.8579 13.0261 14.7294 13.039C14.1793 13.0943 13.7778 13.5561 13.8326 14.0705C13.8604 14.3316 14.0005 14.5561 14.2037 14.7065C14.0056 15.0339 13.7812 15.3776 13.5202 15.7352C12.3497 15.2267 11.3357 13.5034 12.2045 11.6541C12.7397 8.07082 18.112 9.72136 19.0384 9.03297C19.3897 10.2784 18.8012 11.3703 16.3283 11.4193Z" fill="#664F12"/>
<path fill-rule="evenodd" clip-rule="evenodd" d="M65.0332 19.1595C65.5582 18.0868 65.7814 16.8816 65.3639 15.7049C64.1611 12.3145 59.4188 14.3635 58.9366 16.3582C58.4545 18.3528 59.7893 22.7468 61.1202 22.7345C61.651 22.7296 62.6246 22.1498 63.5272 21.2394L64.1324 26.0582L68.1219 25.0199L65.0332 19.1595Z" fill="#D4A181"/>
<path fill-rule="evenodd" clip-rule="evenodd" d="M63.5853 19.2758C64.3344 20.0694 65.2103 20.5859 65.8938 20.408C67.1922 20.0701 67.6502 18.1437 67.1502 16.3309C67.1326 16.2672 67.1138 16.2043 67.0939 16.1421C68.7199 16.7001 70.2762 18.2291 72.0935 17.7561C74.5659 17.1127 74.2116 12.0132 70.7573 12.9123C68.4081 13.5237 67.3443 14.1571 66.4841 14.9083C66.1394 14.4216 65.7151 14.0473 65.2618 13.8268C65.1471 13.7534 64.9866 13.6964 64.7887 13.6563C64.6666 13.6274 64.5436 13.61 64.4207 13.6048C63.761 13.5467 62.8494 13.6219 61.8686 13.8419C61.6854 13.883 61.5067 13.9275 61.3335 13.975C61.0853 13.0864 60.1435 12.5597 59.2272 12.7982C58.3091 13.0371 57.7643 13.9537 58.0103 14.8454C58.2482 15.7078 59.1386 16.2311 60.0273 16.0485C60.57 16.0683 61.2444 16.011 61.9714 15.8716C61.9719 16.1429 62.0136 16.4405 62.1033 16.7656C62.1825 17.0527 62.2991 17.3487 62.4445 17.6423C62.5501 17.4231 62.725 17.2525 62.9352 17.1978C63.5232 17.0447 64.0622 17.4081 64.1998 17.907C64.3745 18.5402 64.1245 19.0962 63.5853 19.2758Z" fill="#E62828"/>
<path fill-rule="evenodd" clip-rule="evenodd" d="M73.2107 39.7969L66.9068 60.8967L63.9417 76.7388H60.9657L63.9364 39.7969H73.2107Z" fill="#BA8B72"/>
<path fill-rule="evenodd" clip-rule="evenodd" d="M76.0437 39.7969C75.6038 50.7581 75.7773 56.7367 75.8757 57.7326C75.9742 58.7285 76.5331 65.3982 80.3416 77.0732H77.2462C72.2025 65.873 70.4418 59.2033 69.8634 57.7326C69.2849 56.2619 67.5764 50.2833 65.0821 39.7969H76.0437Z" fill="#D4A181"/>
<path fill-rule="evenodd" clip-rule="evenodd" d="M73.3459 39.7969C71.7062 47.0574 68.8701 58.647 64.8377 74.5658H60.485C60.1635 58.2267 61.5311 47.4729 63.8996 39.7969H73.3459Z" fill="#151515"/>
<path fill-rule="evenodd" clip-rule="evenodd" d="M76.0656 39.7969C75.6348 50.7581 76.7512 61.5571 80.2095 74.7364H75.5653C70.5123 63.7035 66.8907 52.9578 64.4156 39.7969H76.0656Z" fill="black"/>
<path fill-rule="evenodd" clip-rule="evenodd" d="M80.7827 79.2462L80.6119 76.5716C79.612 76.8557 78.3595 76.7443 76.8546 76.2373C75.2364 77.3507 73.1993 78.1109 70.7432 78.518C70.5559 78.5491 70.4299 78.7218 70.4619 78.9038C70.4639 78.9156 70.4667 78.9273 70.47 78.9388L70.7061 79.7476H76.8546H80.4411L80.7827 79.2462Z" fill="#5C1363"/>
<path fill-rule="evenodd" clip-rule="evenodd" d="M64.606 79.2462L64.4352 76.5716C63.4352 76.8557 62.1828 76.7443 60.6778 76.2373C59.0596 77.3507 57.0225 78.1109 54.5665 78.518C54.3791 78.5491 54.2531 78.7218 54.2851 78.9038C54.2872 78.9156 54.2899 78.9273 54.2933 78.9388L54.5294 79.7476H60.6778H64.2644L64.606 79.2462Z" fill="#5C1363"/>
<path fill-rule="evenodd" clip-rule="evenodd" d="M60.8969 30.3998L54.4462 28.2778C53.2631 27.317 52.1402 26.6058 51.0774 26.1441C50.766 26.0762 50.2457 26.0918 50.8686 26.8286C51.4916 27.5653 52.1127 28.3674 51.9168 28.6608C51.7208 28.9542 51.0541 28.7054 50.8418 29.1735C50.7002 29.4855 51.81 29.7501 54.1711 29.9672L59.1356 33.0366L60.8969 30.3998ZM52.163 34.6182L49.3287 33.6819C48.7229 32.404 48.1671 31.804 47.6613 31.882C47.2422 31.7732 48.2241 33.351 47.4632 33.3299C46.7022 33.3088 44.6749 32.321 44.4138 32.6368C44.0275 33.104 44.6517 34.2284 45.2395 34.7403C46.3382 35.6969 47.1498 35.9494 49.0759 36.1321C50.083 36.2277 51.2154 36.571 52.4731 37.1621L52.163 34.6182Z" fill="#D4A181"/>
<path fill-rule="evenodd" clip-rule="evenodd" d="M63.6354 29.212C61.5711 29.5438 58.7467 29.5917 55.4868 28.2862L54.7882 30.9774C57.1643 32.5804 60.2986 33.695 62.7725 33.2014C64.7221 32.8123 65.3056 30.3388 63.6354 29.212Z" fill="#370B3A"/>
<path fill-rule="evenodd" clip-rule="evenodd" d="M61.5869 33.6867C59.4957 34.5912 55.7141 34.5946 50.2421 33.6968C49.4308 36.482 49.1726 38.4127 49.4673 39.4891C54.2912 40.9737 58.2584 41.3245 61.3893 40.8563C61.6165 42.6709 62.1523 44.3428 63.1927 45.7761C65.3317 48.7227 73.901 44.1869 77.0702 44.248C77.8898 37.869 73.7348 36.0453 73.0291 32.1743C72.2562 27.9352 67.5667 22.0096 67.0511 22.0979L62.3486 22.9033C62.6769 26.1857 62.0187 29.9778 61.5869 33.6867Z" fill="#5C1363"/>
<ellipse cx="67.7874" cy="79.4184" rx="16.5877" ry="1.84892" fill="#333333" fill-opacity="0.22"/>
<defs>
<filter id="filter0_d" x="19.7936" y="0" width="33.8018" height="22.5933" filterUnits="userSpaceOnUse" color-interpolation-filters="sRGB">
<feFlood flood-opacity="0" result="BackgroundImageFix"/>
<feColorMatrix in="SourceAlpha" type="matrix" values="0 0 0 0 0 0 0 0 0 0 0 0 0 0 0 0 0 0 127 0"/>
<feOffset dy="1"/>
<feGaussianBlur stdDeviation="0.5"/>
<feColorMatrix type="matrix" values="0 0 0 0 0 0 0 0 0 0 0 0 0 0 0 0 0 0 0.25 0"/>
<feBlend mode="normal" in2="BackgroundImageFix" result="effect1_dropShadow"/>
<feBlend mode="normal" in="SourceGraphic" in2="effect1_dropShadow" result="shape"/>
</filter>
</defs>
</svg>
