<svg width="82" height="77" viewBox="0 0 82 77" fill="none" xmlns="http://www.w3.org/2000/svg">
<path fill-rule="evenodd" clip-rule="evenodd" d="M52.7173 67.9369C47.4277 68.4717 42.341 70.324 37.0722 69.7529C31.7092 69.1716 25.6743 68.3863 22.0832 64.6165C18.4401 60.792 21.3767 53.886 18.0653 49.8C13.964 44.739 3.97712 45.1626 1.50212 39.2199C-0.725276 33.8717 2.92432 27.2997 6.81862 22.7956C10.5926 18.4306 18.0431 18.8282 22.4334 15.0108C26.8584 11.163 26.1168 0.284392 32.0499 0.856052C39.6732 1.59055 38.8 16.3891 46.3963 17.3196C54.2756 18.2847 58.3016 4.84925 66.2555 5.04589C72.2205 5.19336 76.6603 12.4644 77.119 18.0791C77.6216 24.2317 68.2129 28.5076 68.675 34.6636C69.1467 40.9485 78.9251 43.8686 79.5256 50.142C80.0922 56.0616 76.8885 62.8071 71.6985 66.2522C66.4049 69.766 59.1175 67.2898 52.7173 67.9369Z" fill="#94FDD1" fill-opacity="0.37"/>
<g filter="url(#filter0_d)">
<rect x="58.3008" y="5" width="21.9431" height="11.5282" rx="4" fill="#FFD7D7"/>
<path d="M57.8018 19.0251L60.794 16.2201L64.7837 16.2201L57.8018 19.0251Z" fill="#FFD7D7"/>
</g>
<path d="M71.9244 9.68338L71.6136 12.9624L73.6514 9.15585L72.0132 8.74653L72.324 5.46753L70.2861 9.27405L71.9244 9.68338Z" fill="black"/>
<path d="M66.239 11.3477C66.2865 11.514 66.4962 11.6056 66.7074 11.5525C66.7274 11.5475 66.7466 11.5415 66.7651 11.5343C66.7545 11.5873 66.7431 11.6528 66.7449 11.6837C66.752 11.8142 66.9391 11.8784 67.0984 11.8384C67.0984 11.8384 67.1771 11.8245 67.19 11.8074C67.2362 11.7455 67.1163 11.5496 67.1163 11.5496C67.1061 11.514 67.1346 11.476 67.1798 11.4647C67.2249 11.4533 67.2696 11.4729 67.2798 11.5085C67.2798 11.5085 67.2827 11.7418 67.3556 11.7738C67.4151 11.7998 67.5925 11.7552 67.6302 11.7048C67.6764 11.6429 67.5544 11.4396 67.5544 11.4396C67.5442 11.404 67.5727 11.366 67.6177 11.3547C67.6627 11.3434 67.7077 11.3629 67.7178 11.3985C67.7178 11.3985 67.7206 11.6318 67.7936 11.6638C67.853 11.6898 68.0305 11.6452 68.068 11.5949C68.1143 11.533 67.9923 11.3296 67.9923 11.3296C67.9821 11.294 68.0105 11.2561 68.0556 11.2447C68.1008 11.2334 68.1456 11.253 68.1557 11.2886C68.1557 11.2886 68.1563 11.5143 68.2294 11.5464C68.2497 11.5552 68.3254 11.5303 68.3254 11.5303C68.4848 11.4902 68.6125 11.3471 68.5492 11.2306C68.5342 11.203 68.4895 11.1516 68.4518 11.1107C68.4717 11.1083 68.4918 11.1045 68.5117 11.0995C68.7229 11.0464 68.8557 10.8688 68.8082 10.7025C68.7805 10.6056 68.6979 10.5342 68.5918 10.5019C68.6479 10.334 68.6526 10.1584 68.6053 9.9927C68.4456 9.43464 67.7413 9.12636 67.0318 9.30453C66.3223 9.4827 65.8767 10.0797 66.0362 10.6379C66.0849 10.8084 66.1845 10.9554 66.3194 11.0725C66.2448 11.1503 66.2113 11.2509 66.239 11.3477ZM68.2624 10.1666C68.5761 10.1034 68.3016 10.5463 68.181 10.6658C68.0605 10.7854 67.6695 10.7175 67.6607 10.6114C67.6479 10.4554 68.0691 10.2055 68.2624 10.1666ZM67.4014 11.0342C67.4275 10.9549 67.4329 10.8876 67.4888 10.8736C67.5447 10.8595 67.5852 10.9153 67.6502 10.9717C67.7062 11.0203 67.8304 11.0353 67.7781 11.1052C67.721 11.1817 67.4517 11.2493 67.3615 11.2098C67.2772 11.1729 67.3787 11.1026 67.4014 11.0342ZM66.442 10.6237C66.6299 10.5669 67.1283 10.5859 67.2003 10.7269C67.2493 10.8229 66.9467 11.065 66.7786 11.0179C66.6106 10.971 66.1366 10.7161 66.442 10.6237Z" fill="black"/>
<path d="M70.1324 12.4212C69.9397 12.3791 69.8456 12.4694 69.8456 12.4694C69.7481 12.5626 69.5576 12.6146 69.4215 12.5849L68.3716 12.3558L69.1587 11.6654C69.2607 11.5762 69.4536 11.5318 69.5876 11.5668C69.5876 11.5668 69.7173 11.6007 69.8617 11.4741C70.014 11.3404 70.0187 11.128 69.8718 10.9994L69.8233 10.957C69.7566 10.9343 69.6806 10.8677 69.6544 10.8091L69.6059 10.7668C69.4592 10.6383 69.2166 10.6427 69.0641 10.7764C68.9196 10.903 68.9588 11.0166 68.9588 11.0166C68.9989 11.134 68.9486 11.3031 68.8467 11.3923L67.8725 12.2468L66.5729 11.9633C66.4371 11.9338 66.3032 11.811 66.2755 11.6904C66.2755 11.6904 66.2488 11.5737 66.0563 11.5317C65.8528 11.4874 65.6404 11.5973 65.5817 11.7773L65.5624 11.8367C65.5709 11.8997 65.5407 11.9929 65.4949 12.044L65.4756 12.1033C65.417 12.2835 65.5343 12.4653 65.7377 12.5097C65.9302 12.5518 66.0244 12.4616 66.0244 12.4616C66.1217 12.3684 66.3125 12.3165 66.4483 12.346L67.4983 12.5751L66.7111 13.2656C66.6093 13.355 66.4163 13.3993 66.2823 13.3642C66.2823 13.3642 66.1526 13.3302 66.0083 13.4569C65.8559 13.5905 65.8512 13.8032 65.9981 13.9316L66.0464 13.974C66.1132 13.9968 66.1892 14.0633 66.2154 14.1219L66.2638 14.1643C66.4105 14.2927 66.6532 14.2885 66.8058 14.1546C66.9502 14.028 66.911 13.9144 66.911 13.9144C66.8708 13.7972 66.9212 13.628 67.0231 13.5387L67.9974 12.6841L69.2969 12.9677C69.4327 12.9972 69.5665 13.1202 69.5944 13.2405C69.5944 13.2405 69.6211 13.3572 69.8136 13.3992C70.0171 13.4437 70.2294 13.3336 70.2881 13.1537L70.3075 13.0943C70.2989 13.0313 70.3292 12.9381 70.3748 12.887L70.3943 12.8276C70.453 12.6476 70.3355 12.4656 70.1324 12.4212Z" fill="black"/>
<path d="M75.4829 10.1427C75.7523 10.1427 75.9964 10.1802 76.2152 10.2553C76.4339 10.3304 76.6194 10.433 76.7714 10.5631C76.9261 10.6932 77.0449 10.8459 77.1276 11.0211C77.2103 11.1937 77.2516 11.3777 77.2516 11.5728V13.8551C77.2516 14.0503 77.2103 14.2355 77.1276 14.4106C77.0449 14.5833 76.9261 14.7347 76.7714 14.8648C76.6194 14.9949 76.4339 15.0975 76.2152 15.1726C75.9964 15.2477 75.7523 15.2852 75.4829 15.2852H75.0307C74.7613 15.2852 74.5171 15.2477 74.2984 15.1726C74.0796 15.0975 73.8929 14.9949 73.7382 14.8648C73.5861 14.7347 73.4687 14.5833 73.386 14.4106C73.3033 14.2355 73.262 14.0503 73.262 13.8551V11.5728C73.262 11.3777 73.3033 11.1937 73.386 11.0211C73.4687 10.8459 73.5861 10.6932 73.7382 10.5631C73.8929 10.433 74.0796 10.3304 74.2984 10.2553C74.5171 10.1802 74.7613 10.1427 75.0307 10.1427H75.4829ZM75.9751 11.3251L76.0231 10.8409H75.6069L75.5469 11.3251H75.1868L75.2468 10.8409H74.8186L74.7626 11.3251H74.4985L74.4585 11.7192H74.7226L74.6305 12.5488H74.3664L74.3184 12.9467H74.5825L74.5305 13.4309H74.9507L75.0067 12.9467H75.3668L75.3188 13.4309H75.735L75.795 12.9467H76.0471L76.0911 12.5488H75.835L75.9271 11.7192H76.1872L76.2272 11.3251H75.9751ZM75.4189 12.5488H75.0467L75.1467 11.7192H75.5069L75.4189 12.5488Z" fill="black"/>
<path d="M63.4843 6.40259C63.6811 6.40259 63.8593 6.42998 64.0191 6.48477C64.1788 6.53955 64.3142 6.61443 64.4252 6.70939C64.5382 6.80435 64.6249 6.91575 64.6853 7.04358C64.7457 7.16958 64.7759 7.30381 64.7759 7.44625V9.11173C64.7759 9.25417 64.7457 9.38931 64.6853 9.51714C64.6249 9.64315 64.5382 9.75363 64.4252 9.8486C64.3142 9.94356 64.1788 10.0184 64.0191 10.0732C63.8593 10.128 63.6811 10.1554 63.4843 10.1554H62.5843C62.3875 10.1554 62.2093 10.128 62.0496 10.0732C61.8898 10.0184 61.7534 9.94356 61.6405 9.8486C61.5294 9.75363 61.4437 9.64315 61.3833 9.51714C61.3229 9.38931 61.2927 9.25417 61.2927 9.11173V7.44625C61.2927 7.30381 61.3229 7.16958 61.3833 7.04358C61.4437 6.91575 61.5294 6.80435 61.6405 6.70939C61.7534 6.61443 61.8898 6.53955 62.0496 6.48477C62.2093 6.42998 62.3875 6.40259 62.5843 6.40259H63.4843ZM62.7362 8.06259L63.0285 8.02972H63.1541L63.458 8.05711V8.35021L63.1424 8.38308H63.0285L62.7596 8.35021L62.7099 8.19681L62.7362 8.06259ZM63.7356 7.64896L63.6859 7.39421L63.4843 7.2052L63.1658 7.16958H62.9262L62.5785 7.23807L62.634 7.43529L62.932 7.37777H63.16L63.4113 7.41886L63.458 7.575V7.83249L63.1658 7.79962H63.0051L62.6866 7.83797L62.4849 8.02972L62.4323 8.15298V8.24886L62.4849 8.3776L62.6866 8.56661L63.0051 8.60223H63.1658L63.5077 8.52279L63.6509 8.79671H64.2061L64.3259 8.6077L64.3697 8.35021C64.3678 8.33195 64.3658 8.30912 64.3639 8.28173C64.3639 8.25434 64.3639 8.2169 64.3639 8.16942C64.3639 8.12194 64.3639 8.06259 64.3639 7.99137C64.3639 7.91832 64.3639 7.82792 64.3639 7.72018C64.3639 7.64896 64.36 7.57226 64.3522 7.49008C64.3444 7.4079 64.3278 7.32572 64.3025 7.24355C64.2772 7.16137 64.2402 7.08284 64.1915 7.00797C64.1428 6.93127 64.0765 6.8637 63.9928 6.80526C63.9109 6.745 63.8087 6.69752 63.6859 6.66282C63.5652 6.62812 63.42 6.61077 63.2505 6.61077C62.9875 6.61077 62.7703 6.62903 62.5989 6.66556C62.4275 6.70208 62.2892 6.75139 62.184 6.81348C62.0807 6.87557 62.0038 6.9477 61.9531 7.02988C61.9044 7.11023 61.8713 7.19515 61.8538 7.28463C61.8382 7.36316 61.8304 7.4426 61.8304 7.52295C61.8304 7.54121 61.8304 7.55491 61.8304 7.56404C61.8343 7.59143 61.8362 7.68183 61.8362 7.83523C61.8362 7.98498 61.8382 8.12377 61.8421 8.2516C61.8479 8.3776 61.8616 8.49265 61.883 8.59675C61.9044 8.69901 61.9366 8.78941 61.9794 8.86794C62.0223 8.94463 62.0817 9.00946 62.1577 9.06242C62.2356 9.11538 62.332 9.15556 62.447 9.18295L63.2184 9.22404L63.2388 8.97751C63.1356 8.98298 63.0421 8.98572 62.9583 8.98572C62.7499 8.98572 62.5872 8.96838 62.4703 8.93368C62.3534 8.89898 62.2668 8.83963 62.2103 8.75562C62.1538 8.66979 62.1187 8.55474 62.1051 8.41048C62.0934 8.26621 62.0875 8.0845 62.0875 7.86536V7.56404C62.0875 7.47638 62.0973 7.39055 62.1168 7.30655C62.1382 7.22254 62.1879 7.14767 62.2658 7.08193C62.3437 7.01436 62.4596 6.96049 62.6135 6.92031C62.7694 6.87831 62.9817 6.85731 63.2505 6.85731C63.4395 6.85731 63.5905 6.88196 63.7035 6.93127C63.8165 6.97875 63.9031 7.04175 63.9635 7.12028C64.0239 7.19698 64.0639 7.28372 64.0833 7.38051C64.1028 7.47547 64.1126 7.57043 64.1126 7.66539V8.44335L64.0629 8.6077H63.7824L63.7356 8.44335V7.64896Z" fill="black"/>
<path fill-rule="evenodd" clip-rule="evenodd" d="M37.0497 27.2172C39.3667 27.2252 40.2193 24.5509 41.5411 23.0863C42.4868 22.0384 44.0931 22.3573 44.5743 20.8874C45.7844 17.1911 42.5918 14.5756 38.4142 14.5612C34.2367 14.5469 31.4115 16.8214 30.7906 20.253C30.1698 23.6846 32.8722 27.2028 37.0497 27.2172Z" fill="#191847"/>
<path fill-rule="evenodd" clip-rule="evenodd" d="M37.3144 24.8279C36.3841 23.7664 35.7567 22.4673 35.8677 21.0145C36.1876 16.8283 42.2236 17.7702 43.3906 19.8876C44.5576 22.005 44.3982 27.3652 42.8785 27.7377C42.2724 27.8862 40.9839 27.5128 39.6739 26.7446L40.4771 32.3737L35.6115 32.357L37.3144 24.8279Z" fill="#B28B67"/>
<path fill-rule="evenodd" clip-rule="evenodd" d="M39.3757 22.1413C39.1993 22.0504 38.9969 21.9985 38.7816 21.9977C38.0923 21.9954 37.5315 22.519 37.5291 23.1674C37.5282 23.432 37.6203 23.6765 37.7767 23.8734C37.4792 24.3428 37.2755 24.8364 37.2075 25.3444C36.1824 25.3408 32.4551 21.5846 36.195 18.0756C39.9349 14.5666 45.3022 19.6127 43.6827 19.9004C42.7516 20.0658 40.8744 20.9166 39.3757 22.1413V22.1413Z" fill="#191847"/>
<ellipse cx="38.7873" cy="74.8104" rx="26.8542" ry="1.70508" fill="#333333" fill-opacity="0.22"/>
<path fill-rule="evenodd" clip-rule="evenodd" d="M28.6497 65.8562C31.2752 65.7939 40.3457 65.9018 44.5128 66.4996C45.7102 66.6715 46.8675 66.8469 47.9526 67.0194C51.1779 67.5321 50.7431 73.3332 47.6868 72.7078C40.0753 71.1502 29.432 68.5556 28.5106 68.3612C27.2193 68.0887 26.9996 65.8953 28.6497 65.8562Z" fill="#B28B67"/>
<path fill-rule="evenodd" clip-rule="evenodd" d="M28.1995 65.0126C27.6666 64.7073 27.2584 64.5302 26.9748 64.4811C26.63 64.4214 26.1164 64.3898 25.4341 64.3863C25.3624 64.7724 24.7179 68.2428 23.5007 74.7974C24.3772 75.2283 24.9065 75.1586 25.0887 74.5885C25.2708 74.0184 25.4275 73.5457 25.5586 73.1705L28.6925 68.7181C28.7528 68.6324 28.7297 68.5158 28.6409 68.4576C28.6394 68.4566 28.6379 68.4556 28.6363 68.4547L27.9123 68.0084C27.7516 67.4237 27.7026 66.9626 27.7653 66.6252C27.8162 66.3511 28.0012 65.9924 28.3203 65.5491L28.3203 65.5491C28.4427 65.379 28.3991 65.1453 28.2228 65.0271C28.2152 65.022 28.2075 65.0172 28.1995 65.0126Z" fill="#333333"/>
<path fill-rule="evenodd" clip-rule="evenodd" d="M37.604 65.8201C36.5527 65.1988 35.5822 64.6329 34.7456 64.1647C29.3418 61.1404 28.7927 57.5598 32.2652 51.4025L42.9068 55.1732C44.4618 56.2711 52.1048 63.1286 56.0522 66.7341C58.6648 69.1205 55.9217 73.4139 53.7055 73.9989C53.6678 74.0696 53.6171 74.1087 53.5522 74.1113C42.6637 74.5428 35.9422 69.9103 33.2037 69.6591L33.3864 65.7329L37.604 65.8201Z" fill="#69A1AC"/>
<path fill-rule="evenodd" clip-rule="evenodd" d="M24.5732 64.4117C27.1988 64.3495 36.2693 64.4573 40.4364 65.0552C41.6338 65.227 42.791 65.4024 43.8761 65.5749C47.1015 66.0876 46.6667 71.8887 43.6103 71.2633C35.9989 69.7058 25.3555 67.1111 24.4342 66.9167C23.1429 66.6442 22.9232 64.4508 24.5732 64.4117Z" fill="#B28B67"/>
<path fill-rule="evenodd" clip-rule="evenodd" d="M33.5276 64.3754C32.4763 63.7541 31.5057 63.1882 30.6692 62.72C25.2654 59.6957 24.7163 56.1151 28.1888 49.9578L38.8304 53.7285C40.3854 54.8264 48.0284 61.6839 51.9758 65.2894C54.5884 67.6758 51.8453 71.9692 49.6291 72.5542C49.5914 72.6249 49.5406 72.664 49.4758 72.6666C38.5873 73.0981 31.8658 68.4656 29.1273 68.2144L29.31 64.2882L33.5276 64.3754Z" fill="#89C5CC"/>
<path fill-rule="evenodd" clip-rule="evenodd" d="M24.887 63.8389C24.3541 63.5336 23.9459 63.3564 23.6623 63.3074C23.3174 63.2477 22.8039 63.2161 22.1216 63.2126C22.0499 63.5987 21.4054 67.0691 20.1882 73.6237C21.0647 74.0546 21.594 73.9849 21.7762 73.4148C21.9583 72.8447 22.115 72.372 22.2461 71.9968L25.38 67.5444C25.4403 67.4587 25.4172 67.3421 25.3284 67.2839C25.3269 67.2829 25.3254 67.2819 25.3238 67.281L24.5998 66.8347C24.4391 66.25 24.3901 65.7889 24.4528 65.4515C24.5037 65.1774 24.6887 64.8187 25.0078 64.3754L25.0078 64.3754C25.1302 64.2053 25.0866 63.9716 24.9103 63.8534C24.9027 63.8483 24.895 63.8435 24.887 63.8389Z" fill="#333333"/>
<path d="M52.8621 20.3021C52.8621 19.7498 53.3098 19.3021 53.8621 19.3021H56.8018C57.3541 19.3021 57.8018 19.7498 57.8018 20.3021V27.8957C57.8018 28.448 57.3541 28.8957 56.8018 28.8957H53.8621C53.3098 28.8957 52.8621 28.448 52.8621 27.8957V20.3021Z" fill="black"/>
<path d="M53.1665 20.5375C53.1665 19.9852 53.6142 19.5375 54.1665 19.5375H56.4964C57.0487 19.5375 57.4964 19.9852 57.4964 20.5375V27.6014C57.4964 28.1537 57.0487 28.6014 56.4964 28.6014H54.1665C53.6142 28.6014 53.1665 28.1537 53.1665 27.6014V20.5375Z" fill="white"/>
<path d="M54.1428 19.5375H56.5212V19.5375C56.5212 19.7975 56.3104 20.0083 56.0504 20.0083H54.6137C54.3536 20.0083 54.1428 19.7975 54.1428 19.5375V19.5375Z" fill="black"/>
<path fill-rule="evenodd" clip-rule="evenodd" d="M41.785 32.9376L45.5222 26.9122C45.8065 25.4176 46.2171 24.1358 46.7542 23.0667C46.9588 22.7993 47.3914 22.4406 47.4036 23.3849C47.4159 24.3292 47.4756 25.3168 47.8402 25.3776C48.2049 25.4384 48.5704 24.7956 49.071 24.9639C49.4047 25.076 48.6912 26.0442 46.9306 27.8683L45.0623 33.4843L41.785 32.9376ZM51.8214 29.6123L53.4607 26.9622C53.0547 25.6613 53.084 24.8578 53.5484 24.5519C53.8117 24.1803 54.1233 25.9526 54.7251 25.398C55.3268 24.8434 56.2761 22.7311 56.7093 22.761C57.3501 22.8051 57.6334 24.0145 57.5164 24.7806C57.2976 26.2125 56.8171 26.9607 55.3849 28.4526C54.636 29.2326 53.9595 30.2704 53.3554 31.5661L51.8214 29.6123Z" fill="#997659"/>
<path fill-rule="evenodd" clip-rule="evenodd" d="M38.733 34.0717C40.6383 32.8324 42.9602 30.86 44.6852 27.6562L47.1397 28.9943C46.3395 31.7735 44.5824 34.758 42.2316 36.1779C40.3791 37.2968 38.1705 36.0253 38.733 34.0717Z" fill="#191847"/>
<path fill-rule="evenodd" clip-rule="evenodd" d="M41.5648 38.1013C43.9656 38.7629 47.0727 29.3212 52.9153 27.9444C54.1743 30.5184 54.7156 32.3318 54.5392 33.3846C50.98 39.9015 47.0221 42.6924 43.4877 46.1258C43.4843 47.8749 43.6795 51.8939 42.7385 53.3576C40.8041 56.3669 30.8548 52.8666 27.4092 53.2271C25.6573 47.2327 29.9399 45.1001 30.1881 41.3478C30.4598 37.2385 34.7728 31.1501 35.3466 31.185L40.5798 31.503C40.6638 34.659 40.595 34.6118 41.5648 38.1013Z" fill="#2F3676"/>
<defs>
<filter id="filter0_d" x="56.8018" y="5" width="24.4421" height="16.0251" filterUnits="userSpaceOnUse" color-interpolation-filters="sRGB">
<feFlood flood-opacity="0" result="BackgroundImageFix"/>
<feColorMatrix in="SourceAlpha" type="matrix" values="0 0 0 0 0 0 0 0 0 0 0 0 0 0 0 0 0 0 127 0"/>
<feOffset dy="1"/>
<feGaussianBlur stdDeviation="0.5"/>
<feColorMatrix type="matrix" values="0 0 0 0 0 0 0 0 0 0 0 0 0 0 0 0 0 0 0.25 0"/>
<feBlend mode="normal" in2="BackgroundImageFix" result="effect1_dropShadow"/>
<feBlend mode="normal" in="SourceGraphic" in2="effect1_dropShadow" result="shape"/>
</filter>
</defs>
</svg>
